<svg width="47" height="47" viewBox="0 0 47 47" fill="none" xmlns="http://www.w3.org/2000/svg">
<path d="M46.9605 23.8038C46.9596 19.3168 45.6731 14.924 43.2533 11.1455C40.8334 7.36691 37.3816 4.36082 33.3064 2.48308C29.2312 0.605338 24.7033 -0.0654315 20.2588 0.550182C15.8142 1.1658 11.6391 3.04201 8.22772 5.95672C4.81633 8.87142 2.31151 12.7026 1.0098 16.9966C-0.291917 21.2906 -0.336016 25.8677 0.882722 30.186C2.10146 34.5043 4.532 38.383 7.88659 41.3629C11.2412 44.3428 15.3794 46.2991 19.8113 47.0002V30.5908H13.8467V23.8066H19.8113V18.6312C19.8113 12.7469 23.3141 9.49329 28.6792 9.49329C30.4417 9.51752 32.2002 9.67069 33.9404 9.95157V15.7306H30.9747C30.4704 15.6638 29.9574 15.7113 29.4739 15.8695C28.9903 16.0278 28.5486 16.2927 28.1812 16.6447C27.8139 16.9967 27.5305 17.4269 27.3518 17.9032C27.1732 18.3796 27.104 18.8901 27.1493 19.3968V23.8038H33.6566L32.6154 30.588H27.1493V47.0002C32.6721 46.1248 37.7014 43.3078 41.3329 39.0557C44.9645 34.8037 46.9599 29.3956 46.9605 23.8038Z" fill="white"/>
</svg>
