<svg width="48" height="47" viewBox="0 0 48 47" fill="none" xmlns="http://www.w3.org/2000/svg">
<path d="M23.9803 46.5456C19.3773 46.5458 14.8777 45.1809 11.0504 42.6237C7.22311 40.0665 4.2401 36.4318 2.4786 32.1792C0.717097 27.9266 0.256221 23.2471 1.15425 18.7326C2.05229 14.2181 4.26889 10.0712 7.52376 6.81652C11.8883 2.45197 17.8079 0 23.9803 0C30.1527 0 36.0723 2.45197 40.4368 6.81652C44.8014 11.1811 47.2533 17.1007 47.2533 23.2731C47.2533 29.4454 44.8014 35.365 40.4368 39.7296C38.2807 41.8973 35.716 43.6159 32.8913 44.7859C30.0665 45.9559 27.0377 46.554 23.9803 46.5456ZM29.5586 23.5181C32.6336 23.5181 32.6336 26.4326 32.6336 28.5606V37.8369H38.5345V27.3768C38.5345 22.6694 37.6761 18.3164 31.4498 18.3164C30.3268 18.278 29.2143 18.5434 28.2296 19.0847C27.2449 19.6259 26.4245 20.4228 25.8549 21.3915H25.7719V18.7886H20.0953V37.8328H26.0017V28.4027C26.0128 25.9881 26.4337 23.5181 29.5586 23.5181ZM10.488 18.7886V37.8328H16.4014V18.7886H10.488ZM13.4454 9.31006C12.7635 9.30595 12.0958 9.50455 11.527 9.88064C10.9582 10.2567 10.514 10.7934 10.2508 11.4224C9.98755 12.0514 9.91717 12.7445 10.0486 13.4136C10.18 14.0827 10.5073 14.6977 10.9889 15.1804C11.4704 15.6632 12.0846 15.992 12.7534 16.125C13.4222 16.258 14.1154 16.1893 14.7451 15.9276C15.3748 15.6659 15.9125 15.223 16.2899 14.6552C16.6674 14.0873 16.8676 13.42 16.8652 12.7382C16.8652 11.8304 16.5052 10.9597 15.8641 10.3171C15.223 9.6744 14.3531 9.31226 13.4454 9.31006Z" fill="white"/>
</svg>
