<svg width="298" height="70" viewBox="0 0 298 70" fill="none" xmlns="http://www.w3.org/2000/svg">
<path d="M77.1001 27.2C77.2001 27.2 77.5001 27.1 77.9001 27C78.7001 26.9 79.2001 26.7 79.5001 26.5C79.7001 26.4 79.8001 26.1 79.8001 25.7C79.8001 25.6 79.8001 24.3 79.9001 21.8V20.4V18.7V14.4V13.8C79.9001 13.6 79.8001 13.4 79.7001 13.3C79.6001 13.2 79.5001 13.2 79.2001 13.2C79.0001 13.2 78.7001 13.2 78.4001 13.3C78.0001 13.3 77.7001 13.4 77.4001 13.4C77.3001 13.4 77.3001 13.4 77.2001 13.4V12.3C77.7001 12.1 78.4001 12 79.4001 11.8C80.9001 11.5 82.8001 11.4 85.1001 11.4C87.0001 11.4 88.4001 11.5 89.2001 11.7C90.5001 12 91.6001 12.5 92.4001 13.2C93.5001 14.1 94.3001 15.1 94.9001 16.2C95.5001 17.3 95.7001 18.6 95.7001 20C95.7001 21.7 95.3001 23.2 94.6001 24.4C93.9001 25.6 92.8001 26.6 91.4001 27.3C90.4001 27.8 89.1001 28.1 87.4001 28.1L84.8001 28H84.0001H83.0001H82.7001H81.6001H80.2001C80.1001 28 79.7001 28 78.9001 28.1C78.6001 28.1 78.3001 28.1 77.8001 28.1C77.5001 28.1 77.3001 28.1 77.2001 28.1C77.1001 28 77.1001 27.7 77.1001 27.2ZM83.2001 13C83.2001 13.3 83.2001 13.4 83.2001 13.6V15.8V17.7C83.2001 18.3 83.2001 18.8 83.2001 19.3V20.5V22.5V23.7C83.2001 24.9 83.4001 25.7 83.8001 26.1C84.4001 26.7 85.3001 27 86.4001 27C87.2001 27 87.9001 26.9 88.3001 26.8C89.1001 26.5 89.8001 26 90.3001 25.5C90.8001 25 91.2001 24.2 91.4001 23.2C91.7001 22.2 91.8001 21.2 91.8001 20.2C91.8001 18.5 91.5001 17.1 91.0001 16C90.5001 14.9 89.7001 14.1 88.8001 13.6C87.8001 13.1 86.8001 12.8 85.5001 12.8C84.6001 12.7 83.9001 12.8 83.2001 13Z" fill="#000780"/>
<path d="M97.9001 28.2V27.3C98.1001 27.2 98.3001 27.2 98.7001 27.1C99.2001 27 99.7001 26.8 99.9001 26.7C100.1 26.4 100.1 26.1 100.1 25.6V24.1V21.2V20.5C100.2 18.8 100.2 18 100.2 17.9V16.2V15.5L100.1 14V13.5C100.1 13.4 100.1 13.3 100 13.1C99.7001 12.9 99.1001 12.8 98.3001 12.8C98.1001 12.8 98.0001 12.8 97.9001 12.8V11.7L101.5 11.9C102 11.9 102.2 11.9 102.3 11.9C102.8 11.9 103.6 11.9 104.7 11.8C105.3 11.8 105.7 11.7 105.9 11.7C105.9 11.9 105.9 12 105.9 12.1C105.9 12.2 105.9 12.4 105.9 12.7C105.6 12.8 105.2 12.9 104.7 13C104.3 13.1 103.9 13.2 103.6 13.3C103.5 13.5 103.5 13.8 103.5 14.3C103.5 14.7 103.5 15 103.5 15.2C103.5 16.6 103.5 17.7 103.5 18.5V21.9L103.4 23.6L103.5 26.1V26.6C103.5 26.7 103.5 26.8 103.6 26.9C104.1 27 104.6 27.1 105 27.1C105.1 27.1 105.3 27.1 105.8 27.2C105.8 27.5 105.9 27.7 105.9 27.8C105.9 27.9 105.9 28 105.9 28.2C105.8 28.2 105.7 28.2 105.6 28.2C105.3 28.2 105.2 28.2 105.1 28.2C105 28.2 104.9 28.2 104.8 28.2C104.7 28.2 104.1 28.1 103.1 28H100.8C100.4 28 99.7001 28 98.8001 28.1C98.4001 28.2 98.0001 28.2 97.9001 28.2Z" fill="#000780"/>
<path d="M117.9 12.1C118 12.4 118.1 12.8 118.1 13.4C118.2 14.3 118.3 15 118.3 15.4C118.3 15.6 118.3 15.7 118.2 15.9H118.1H117.2H117C116.6 14.8 116.3 14 115.9 13.6C115.3 12.9 114.5 12.6 113.6 12.6C112.8 12.6 112.1 12.8 111.6 13.3C111.1 13.7 110.9 14.3 110.9 14.9C110.9 15.4 111.1 16 111.6 16.5C112.1 17 113.1 17.5 114.6 17.9C115.1 18.1 115.7 18.3 116.5 18.6C117.2 18.9 117.8 19.3 118.2 19.7C118.7 20.2 119.1 20.7 119.3 21.2C119.5 21.7 119.6 22.3 119.6 23C119.6 23.8 119.5 24.6 119.2 25.4C119 25.8 118.8 26.2 118.4 26.6C118.1 26.9 117.8 27.2 117.2 27.5C116.7 27.8 116.1 28.1 115.5 28.2C114.9 28.4 114.2 28.4 113.3 28.4C112.7 28.4 112 28.3 111.2 28.1L109.7 27.7C109.3 27.6 109 27.5 108.9 27.4C108.9 27.4 108.8 27.3 108.8 27.2V27.1C108.8 27 108.8 26.4 108.7 25.4C108.7 24.8 108.7 24.5 108.7 24.2V23.7H109.9C110.3 24.6 110.6 25.2 110.7 25.4C111 25.8 111.3 26.2 111.6 26.5C111.9 26.8 112.3 27 112.7 27.1C113.1 27.2 113.6 27.3 114.1 27.3C114.6 27.3 115.1 27.2 115.6 27C116.2 26.8 116.6 26.5 116.9 26C117.2 25.6 117.4 25.1 117.4 24.6C117.4 24 117.1 23.4 116.5 22.9C116.1 22.6 115.2 22.1 113.6 21.6C112 21 111 20.6 110.4 20.1C109.8 19.7 109.3 19.1 109 18.4C108.7 17.7 108.5 17 108.5 16.3C108.5 14.9 109 13.8 110 12.9C111 12 112.4 11.5 114.3 11.5C114.7 11.5 115.3 11.6 116.1 11.7C116.5 11.7 117.1 11.8 117.9 12.1Z" fill="#000780"/>
<path d="M121.8 11H122.6C122.7 11.1 122.7 11.2 122.7 11.2C122.9 11.6 123.1 11.9 123.2 12C123.3 12 123.9 12 124.9 12C125.6 12 126.1 12 126.6 12H126.9H128.4H131.3H135.2L136 11.9C136.1 11.8 136.2 11.6 136.4 11.3C136.4 11.2 136.5 11.1 136.5 11H137.1C137.2 11 137.3 11 137.5 11C137.5 11.6 137.5 12.5 137.5 13.7V14.8V15.4C137.5 15.6 137.5 15.8 137.4 16C137.1 16.1 136.7 16.2 136.5 16.2C136.3 15.9 136 15.4 135.8 14.8C135.5 14.2 135.4 13.8 135.3 13.8C135.2 13.7 135.1 13.6 134.9 13.6C134.7 13.6 133.8 13.5 132.2 13.5C132 13.5 131.7 13.5 131.3 13.6C131.3 13.9 131.2 14.2 131.2 14.4V16.1V19.8V23.8V25.5C131.2 26.1 131.3 26.5 131.4 26.8C131.5 26.9 131.8 26.9 132.2 27C132.3 27 132.6 27.1 133.1 27.2C133.4 27.3 133.6 27.3 133.8 27.4C133.8 27.7 133.9 27.9 133.9 28C133.9 28.1 133.9 28.2 133.9 28.3C133.7 28.3 133.6 28.3 133.4 28.3C132.5 28.3 131.8 28.3 131.2 28.2C130.6 28.1 129.5 28.1 127.9 28.1C127.6 28.1 126.9 28.2 125.7 28.3C125.2 28.3 124.9 28.4 124.8 28.4C124.8 28.3 124.8 28.2 124.8 28.1V27.8V27.7C125 27.5 125.3 27.3 125.9 27.2C126.8 27 127.4 26.8 127.7 26.6C127.8 26.4 127.8 26.2 127.9 26C128 25 128 23.4 128 21.1L127.9 16.3C127.9 15 127.9 14.2 127.8 13.9C127.8 13.8 127.8 13.8 127.7 13.7C127.6 13.6 127.6 13.6 127.5 13.6C127.2 13.6 126.4 13.5 124.9 13.5C124.1 13.5 123.6 13.6 123.3 13.7C122.9 13.9 122.4 14.5 121.7 15.4C121.5 15.7 121.3 15.8 121.2 15.8C120.8 15.6 120.6 15.4 120.4 15.3C120.7 14.7 121 13.6 121.5 12C121.7 11.5 121.8 11.2 121.8 11Z" fill="#000780"/>
<path d="M139.5 27.5C139.7 27.4 140 27.3 140.5 27.2C140.9 27.1 141.3 27.1 141.7 26.9C141.7 26.7 141.8 26.6 141.8 26.5C141.8 26.4 141.8 26 141.8 25.3V22.5L141.9 21V19.8V19.1C141.9 18.2 141.9 17.3 141.9 16.5C141.9 14.7 141.9 13.6 141.8 13.1L141 12.9C140.3 12.9 139.9 12.8 139.6 12.8V12L139.7 11.9C140.1 11.8 140.5 11.8 140.9 11.8C141.1 11.8 141.5 11.8 142.1 11.8C142.7 11.9 143 11.9 143.1 11.9H143.8L145.4 11.8C146.4 11.7 147.4 11.6 148.5 11.6C150.2 11.6 151.6 12 152.7 12.9C153.7 13.8 154.2 14.8 154.2 16C154.2 16.9 153.9 17.6 153.4 18.3C152.8 19 152 19.5 150.8 19.9C150.9 20.1 151 20.3 151.2 20.5C151.6 21 151.8 21.4 152.1 21.8L154.1 25.1C154.6 26 154.9 26.5 155.1 26.6C155.3 26.7 155.6 26.9 156.1 27.1C156.5 27.2 156.8 27.4 157 27.5C157.1 27.6 157.1 27.8 157.1 27.9C157.1 28 157.1 28.1 157.1 28.2H156.8H156.5L155.8 28.1H155.3C155 28.1 154.7 28 154.3 28H153C152.9 28 152.6 28 152.1 28.1C151.9 28.1 151.7 28.1 151.6 28.2L151.2 27.4C150.8 26.8 150.6 26.3 150.4 26C150 25.2 149.4 23.9 148.5 22.1C148.1 21.3 147.8 20.8 147.6 20.7C147.3 20.5 146.9 20.4 146.3 20.4C146.1 20.4 145.8 20.4 145.4 20.4C145.4 20.6 145.4 20.9 145.4 21.3L145.5 24.1L145.4 26.5C145.6 26.6 145.9 26.8 146.3 26.8C147 26.9 147.5 27.1 148 27.3C148 27.7 148 28 147.9 28.2C147.7 28.2 147.6 28.2 147.6 28.2H147.1C145.3 28 144.2 28 143.9 28C143.7 28 143.5 28 143.4 28L141.6 28.1C141.1 28.2 140.6 28.2 140.1 28.2H139.6C139.6 28 139.6 27.9 139.6 27.8C139.4 27.8 139.5 27.6 139.5 27.5ZM145.2 19.2C145.6 19.2 145.9 19.2 146.1 19.2C147.5 19.2 148.6 18.9 149.2 18.4C149.8 17.9 150.1 17.2 150.1 16.3C150.1 15.8 150 15.3 149.9 14.8C149.8 14.3 149.6 14 149.3 13.7C149 13.4 148.6 13.1 148.1 12.9C147.7 12.8 147.1 12.7 146.3 12.7C145.9 12.7 145.6 12.7 145.3 12.8V13V14.7V15.7V17.1C145.3 17.5 145.3 18 145.3 18.6V19.2H145.2Z" fill="#000780"/>
<path d="M157.7 28.2V27.3C157.9 27.2 158.1 27.2 158.5 27.1C159 27 159.5 26.8 159.7 26.7C159.9 26.4 159.9 26.1 159.9 25.6V24.1V21.2V20.5C160 18.8 160 17.9 160 17.9V16.2V15.5V14.1V13.6C160 13.5 160 13.4 159.9 13.2C159.6 13 159 12.9 158.2 12.9C158 12.9 157.9 12.9 157.8 12.9V11.8L161.4 12C161.9 12 162.1 12 162.2 12C162.7 12 163.5 12 164.6 11.9C165.2 11.9 165.6 11.8 165.8 11.8C165.8 12 165.8 12.1 165.8 12.2C165.8 12.3 165.8 12.5 165.8 12.8C165.5 12.9 165.1 13 164.6 13.1C164.2 13.2 163.8 13.3 163.5 13.4C163.4 13.6 163.4 13.9 163.4 14.4C163.4 14.8 163.4 15.1 163.4 15.3C163.4 16.7 163.4 17.8 163.4 18.6V22L163.3 23.7L163.4 26.2V26.7C163.4 26.8 163.4 26.9 163.5 27C164 27.1 164.5 27.2 164.9 27.2C165 27.2 165.2 27.2 165.7 27.3C165.7 27.6 165.8 27.8 165.8 27.9C165.8 28 165.8 28.1 165.8 28.3C165.7 28.3 165.6 28.3 165.5 28.3C165.2 28.3 165.1 28.3 165 28.3C164.9 28.3 164.8 28.3 164.7 28.3C164.6 28.3 164 28.2 163 28.1H160.7C160.3 28.1 159.6 28.1 158.7 28.2C158.2 28.2 157.8 28.2 157.7 28.2Z" fill="#000780"/>
<path d="M167.9 28.3V27.3C168.1 27.2 168.4 27.2 168.6 27.2C169.2 27.1 169.6 27 170 26.9C170.1 26.7 170.2 26.5 170.2 26.3C170.3 25.8 170.3 25.1 170.3 24.2V18.8C170.3 18.2 170.3 16.8 170.2 14.4C170.2 13.8 170.1 13.4 170.1 13.2C170.1 13.1 170 13.1 170 13.1C169.9 13 169.6 13 169.2 12.9C169 12.9 168.6 12.8 168 12.8V11.9L170.9 11.8L175.1 11.7H175.6C175.7 11.7 175.8 11.7 175.9 11.7C176 11.7 176.2 11.7 176.6 11.7H177.4C178 11.7 178.7 11.8 179.5 12C179.8 12.1 180.1 12.2 180.5 12.4C180.9 12.6 181.3 12.9 181.6 13.2C181.9 13.5 182.2 13.9 182.3 14.3C182.5 14.7 182.5 15.2 182.5 15.6C182.5 16.1 182.4 16.6 182.2 17C182 17.4 181.6 17.8 181.2 18.1C181 18.3 180.4 18.6 179.6 18.9C180.9 19.2 181.9 19.7 182.5 20.5C183.2 21.3 183.5 22.1 183.5 23.1C183.5 23.7 183.4 24.2 183.2 24.9C183 25.4 182.8 25.8 182.4 26.2C181.9 26.7 181.4 27.1 180.9 27.4C180.4 27.7 179.6 27.9 178.7 28C178.2 28.1 177.5 28.1 176.5 28.1L174.3 28C173.4 28 172.3 28 171 28.1C170.5 28.2 169.5 28.3 167.9 28.3ZM173.8 18.7C174.1 18.8 174.5 18.8 175 18.8C176.3 18.8 177.2 18.6 177.9 18.1C178.6 17.6 178.9 16.8 178.9 15.7C178.9 14.9 178.6 14.2 178 13.7C177.4 13.2 176.4 12.9 175.2 12.9C174.8 12.9 174.4 12.9 173.8 13C173.8 13.2 173.8 13.5 173.8 13.8C173.8 14.5 173.9 15.5 173.9 16.8V17.9C173.8 18 173.8 18.3 173.8 18.7ZM174 26.8C174.6 27 175.1 27.1 175.5 27.1C176.5 27.1 177.3 27 177.9 26.7C178.5 26.4 179 26 179.2 25.5C179.5 25 179.6 24.3 179.6 23.5C179.6 22.7 179.4 22 179.1 21.5C178.7 20.8 178.2 20.4 177.6 20.1C177 19.9 176.1 19.7 174.9 19.7C174.4 19.7 174 19.7 173.8 19.8V21.4V23.3V26.2C173.8 26.4 173.9 26.6 174 26.8Z" fill="#000780"/>
<path d="M185.1 12.8V11.8C185.3 11.8 185.4 11.8 185.6 11.8C186 11.8 186.5 11.8 186.9 11.8C188 11.9 188.7 11.9 188.9 11.9C189.6 11.9 190.2 11.9 190.9 11.9C191.6 11.9 192.1 11.9 192.6 11.8C193.1 11.8 193.4 11.8 193.6 11.8V12V12.7V12.8C193.1 12.9 192.6 12.9 192.1 12.9C191.6 12.9 191.3 13 191.2 13.2C191.1 13.3 191 13.8 191 14.7C191 15 191 15.2 191 15.4V15.9V17.1L191.1 18.1L191 20.3L191.2 23.5C191.2 24.4 191.4 25.2 191.8 25.8C192.1 26.3 192.5 26.6 192.9 26.9C193.6 27.3 194.3 27.4 195 27.4C195.8 27.4 196.6 27.3 197.3 27.1C197.7 27 198.1 26.8 198.5 26.5C198.9 26.2 199.1 26 199.3 25.8C199.6 25.3 199.8 24.9 199.9 24.5C200.1 23.9 200.1 23.1 200.1 21.9C200.1 19.8 200 17.5 199.8 15L199.7 14.3C199.7 13.8 199.6 13.5 199.4 13.3C199.1 13 198.8 12.9 198.5 12.9H197.3H197.1V11.9H198.1L200.5 12C201.3 12 202.1 12 202.8 11.9H203C203.1 12.2 203.1 12.4 203.1 12.5C203.1 12.6 203.1 12.7 203 12.8C202.7 12.9 202.4 12.9 202 13C201.4 13.1 201.1 13.1 201.1 13.2C201 13.3 200.9 13.5 200.9 13.7C200.9 13.9 200.9 14.1 200.9 14.4C200.9 14.6 200.9 15 200.9 15.5C200.9 15.8 200.9 16 200.9 16.2C200.9 16.4 200.9 16.5 200.9 16.7C200.9 17.3 200.9 17.9 201 18.6L201.1 21.2C201.1 22.9 201 24.1 200.9 24.7C200.8 25.3 200.6 25.7 200.4 26.1C200.1 26.6 199.6 27.1 199.1 27.5C198.6 27.9 197.8 28.3 196.9 28.5C196 28.8 195 28.9 193.9 28.9C192.6 28.9 191.5 28.7 190.5 28.4C189.6 28 188.8 27.6 188.4 27C188 26.4 187.6 25.7 187.4 24.8C187.3 24.2 187.2 23.3 187.2 22.1V15.7C187.2 14.3 187.1 13.5 187 13.3C186.8 13 186.2 12.9 185.3 12.9C185.4 12.8 185.2 12.8 185.1 12.8Z" fill="#000780"/>
<path d="M205.4 28.2V27.3C205.6 27.2 205.8 27.2 206.2 27.1C206.7 27 207.2 26.8 207.4 26.7C207.6 26.4 207.6 26.1 207.6 25.6V24.1V21.2V20.5C207.7 18.8 207.7 18 207.7 17.9V16.2V15.5L207.6 14V13.5C207.6 13.4 207.6 13.3 207.5 13.1C207.2 12.9 206.6 12.8 205.8 12.8C205.6 12.8 205.5 12.8 205.4 12.8V11.7L209 11.9C209.5 11.9 209.7 11.9 209.8 11.9C210.3 11.9 211.1 11.9 212.2 11.8C212.8 11.8 213.2 11.7 213.4 11.7C213.4 11.9 213.4 12 213.4 12.1C213.4 12.2 213.4 12.4 213.4 12.7C213.1 12.8 212.7 12.9 212.2 13C211.8 13.1 211.4 13.2 211.1 13.3C211 13.5 211 13.8 211 14.3C211 14.7 211 15 211 15.2C211 16.6 211 17.7 211 18.5V21.9L210.9 23.6L211 26.1V26.6C211 26.7 211 26.8 211.1 26.9C211.6 27 212.1 27.1 212.5 27.1C212.6 27.1 212.8 27.1 213.3 27.2C213.3 27.5 213.4 27.7 213.4 27.8C213.4 27.9 213.4 28 213.4 28.2C213.3 28.2 213.2 28.2 213.1 28.2C212.8 28.2 212.7 28.2 212.6 28.2C212.5 28.2 212.4 28.2 212.3 28.2C212.2 28.2 211.6 28.1 210.6 28H208.3C207.9 28 207.2 28 206.3 28.1C206 28.2 205.6 28.2 205.4 28.2Z" fill="#000780"/>
<path d="M215.4 27.2C215.5 27.2 215.8 27.1 216.2 27C217 26.9 217.5 26.7 217.8 26.5C218 26.4 218.1 26.1 218.1 25.7C218.1 25.6 218.1 24.3 218.2 21.8V20.4V18.7V14.4V13.8C218.2 13.6 218.1 13.4 218 13.3C217.9 13.2 217.8 13.2 217.5 13.2C217.3 13.2 217 13.2 216.7 13.3C216.3 13.3 216 13.4 215.7 13.4C215.6 13.4 215.6 13.4 215.5 13.4V12.3C216 12.1 216.7 12 217.7 11.8C219.2 11.5 221.1 11.4 223.4 11.4C225.3 11.4 226.7 11.5 227.5 11.7C228.8 12 229.9 12.5 230.7 13.2C231.8 14.1 232.6 15.1 233.2 16.2C233.8 17.3 234 18.6 234 20C234 21.7 233.6 23.2 232.9 24.4C232.2 25.6 231.1 26.6 229.7 27.3C228.7 27.8 227.4 28.1 225.7 28.1L223.1 28H222.3H221.3H221H219.9H218.5C218.4 28 218 28 217.2 28.1C216.9 28.1 216.6 28.1 216.1 28.1C215.8 28.1 215.6 28.1 215.5 28.1C215.4 28 215.4 27.7 215.4 27.2ZM221.5 13C221.5 13.3 221.5 13.4 221.5 13.6V15.8V17.7C221.5 18.3 221.5 18.8 221.5 19.3V20.5V22.5V23.7C221.5 24.9 221.7 25.7 222.2 26.1C222.8 26.7 223.7 27 224.8 27C225.6 27 226.3 26.9 226.7 26.8C227.5 26.5 228.2 26 228.7 25.5C229.2 25 229.6 24.2 229.8 23.2C230.1 22.2 230.2 21.2 230.2 20.2C230.2 18.5 229.9 17.1 229.4 16C228.9 14.9 228.1 14.1 227.2 13.6C226.2 13.1 225.2 12.8 223.9 12.8C222.9 12.7 222.2 12.8 221.5 13Z" fill="#000780"/>
<path d="M236.2 19.8C236.2 18.7 236.4 17.7 236.8 16.6C237.1 15.8 237.5 15.1 238 14.5C238.5 13.9 239.2 13.3 240 12.8C240.8 12.3 241.6 11.9 242.5 11.7C243.4 11.5 244.3 11.4 245.3 11.4C247.1 11.4 248.6 11.7 249.9 12.4C251.2 13.1 252.2 14 253 15.1C254 16.6 254.5 18.1 254.5 19.7C254.5 22.1 253.7 24.2 252 25.9C250.4 27.6 248.1 28.5 245.2 28.5C244.5 28.5 243.8 28.5 243.2 28.4C242.7 28.3 242.3 28.2 242 28.1C241.4 27.9 241 27.8 240.9 27.7C240 27.2 239.2 26.6 238.7 26.1C238.2 25.6 237.7 24.9 237.3 24.2C237.1 23.8 236.8 23.1 236.6 22.1C236.3 21.4 236.2 20.7 236.2 19.8ZM244.9 12.7C244.2 12.7 243.5 12.9 242.9 13.2C242.3 13.5 241.9 13.9 241.6 14.3C241.1 15 240.8 15.8 240.6 16.6C240.4 17.4 240.3 18.5 240.3 19.7C240.3 20.4 240.3 21 240.4 21.3C240.4 21.4 240.4 21.6 240.5 21.8C240.6 22.4 240.7 22.9 240.8 23.2C241.2 24.3 241.4 24.9 241.6 25.2C241.9 25.6 242.2 26.1 242.7 26.5C243 26.7 243.3 26.9 243.8 27.1C244.3 27.3 244.8 27.4 245.3 27.4C246.2 27.4 247.1 27.2 247.9 26.8C248.7 26.4 249.3 25.6 249.8 24.6C250.3 23.6 250.5 22.2 250.5 20.6C250.5 19.9 250.5 19 250.4 17.8L250.3 17.6C250.3 17.5 250.2 17.4 250.2 17.1C249.9 15.7 249.3 14.6 248.4 13.9C247.4 13 246.3 12.7 244.9 12.7Z" fill="#000780"/>
<path d="M256.8 27.5C257 27.4 257.3 27.3 257.8 27.2C258.2 27.1 258.6 27.1 259 26.9C259 26.7 259.1 26.6 259.1 26.5C259.1 26.4 259.1 26 259.1 25.3V22.5L259.2 21V19.8V19.1C259.2 18.2 259.2 17.3 259.2 16.5C259.2 14.7 259.2 13.6 259.1 13.1L258.3 12.9C257.6 12.9 257.2 12.8 256.9 12.8V12L257 11.9C257.4 11.8 257.8 11.8 258.2 11.8C258.4 11.8 258.8 11.8 259.4 11.8C260 11.9 260.3 11.9 260.4 11.9H261.1L262.7 11.8C263.7 11.7 264.7 11.6 265.8 11.6C267.5 11.6 268.9 12 270 12.9C271 13.8 271.5 14.8 271.5 16C271.5 16.9 271.2 17.6 270.7 18.3C270.1 19 269.3 19.5 268.1 19.9C268.2 20.1 268.3 20.3 268.5 20.5C268.9 21 269.1 21.4 269.4 21.8L271.4 25.1C271.9 26 272.2 26.5 272.4 26.6C272.6 26.7 272.9 26.9 273.4 27.1C273.8 27.2 274.1 27.4 274.3 27.5C274.4 27.6 274.4 27.8 274.4 27.9C274.4 28 274.4 28.1 274.4 28.2H274.1H273.8L273.1 28.1H272.6C272.3 28.1 272 28 271.6 28H270.3C270.2 28 269.9 28 269.4 28.1C269.2 28.1 269 28.1 268.9 28.2L268.5 27.4C268.1 26.8 267.9 26.3 267.7 26C267.3 25.2 266.7 23.9 265.8 22.1C265.4 21.3 265.1 20.8 264.9 20.7C264.6 20.5 264.2 20.4 263.6 20.4C263.4 20.4 263.1 20.4 262.7 20.4C262.7 20.6 262.7 20.9 262.7 21.3L262.8 24.1L262.7 26.5C262.9 26.6 263.2 26.8 263.6 26.8C264.3 26.9 264.8 27.1 265.3 27.3C265.3 27.7 265.3 28 265.2 28.2C265 28.2 264.9 28.2 264.9 28.2H264.4C262.6 28 261.5 28 261.2 28C261 28 260.8 28 260.7 28L258.9 28.1C258.4 28.2 257.9 28.2 257.4 28.2H256.9C256.9 28 256.9 27.9 256.9 27.8C256.7 27.8 256.7 27.6 256.8 27.5ZM262.5 19.2C262.9 19.2 263.2 19.2 263.4 19.2C264.8 19.2 265.9 18.9 266.5 18.4C267.1 17.9 267.4 17.2 267.4 16.3C267.4 15.8 267.3 15.3 267.2 14.8C267.1 14.3 266.9 14 266.6 13.7C266.3 13.4 265.9 13.1 265.4 12.9C265 12.9 264.4 12.9 263.6 12.9C263.2 12.9 262.9 12.9 262.6 13V13.2V14.9V15.9V17.3C262.6 17.7 262.6 18.2 262.6 18.8V19.2H262.5Z" fill="#000780"/>
<path d="M273.6 28.2V27.3C273.8 27.2 274 27.2 274.5 27.1C275.2 27 275.6 26.9 275.7 26.8C275.8 26.7 276 26.5 276.2 26.1L278.8 19.4L281.8 11.5C282.1 11.5 282.4 11.5 282.6 11.5H283.2L283.3 11.7L285.5 17C286 18.1 286.5 19.2 286.8 20.2C287.2 21.2 287.5 22.1 287.8 22.8C288 23.2 288.2 23.8 288.5 24.6C288.7 25 288.9 25.6 289.2 26.2C289.4 26.6 289.5 26.8 289.6 26.8C289.8 26.9 290 27 290.3 27.1C290.6 27.1 291 27.2 291.4 27.4C291.4 27.7 291.5 27.9 291.5 28C291.5 28.1 291.5 28.2 291.5 28.3C290.9 28.3 290.2 28.3 289.4 28.2C288.6 28.1 288 28.1 287.4 28.1C286.7 28.1 286.2 28.1 285.9 28.1L283.7 28.2H283.1C283.1 27.9 283.1 27.6 283.1 27.3L284.5 27C284.9 26.9 285.2 26.8 285.2 26.7C285.3 26.6 285.3 26.5 285.3 26.4C285.3 26.3 285.3 26.2 285.2 26.1L284.7 24.9L283.7 22.4H278.8C278.6 22.8 278.2 23.8 277.7 25.4C277.5 25.9 277.5 26.2 277.5 26.3C277.5 26.5 277.6 26.7 277.7 26.8C277.9 27 278.3 27.1 278.8 27.1C278.9 27.1 279.2 27.2 279.7 27.2C279.7 27.5 279.7 27.7 279.7 27.8C279.7 27.9 279.7 28 279.7 28.1C279.2 28.1 277.9 28 275.9 27.9L275.4 28C274.8 28.1 274.2 28.2 273.6 28.2ZM279.6 21.1C281.6 21.1 282.8 21.1 283.1 21.1H283.4C283.1 20.3 282.8 19.5 282.4 18.5C282 17.5 281.7 16.7 281.4 16.2L279.6 21.1Z" fill="#000780"/>
<path d="M77.2998 58.2C78.4998 57.6 79.5998 57.2 80.4998 56.9C80.6998 56.8 80.8998 56.6 80.9998 56.3C81.0998 56.1 81.0998 55.1 81.0998 53.5C81.0998 53.3 81.0998 52.9 80.9998 52.2V51.9V48.2V45.6V44.8V44.1C80.9998 43.9 80.9998 43.7 81.0998 43.3L80.9998 42.5V42.3C80.9998 42.1 80.9998 41.9 80.9998 41.6C80.9998 40.4 80.8998 39.4 80.6998 38.8C80.2998 38.5 79.5998 38.2 78.5998 37.9C77.9998 37.8 77.5998 37.6 77.2998 37.4L77.3998 36.3C77.5998 36.3 77.7998 36.3 77.9998 36.3C78.9998 36.3 79.7998 36.4 80.6998 36.5C81.4998 36.6 82.6998 36.7 84.0998 36.7L85.8998 36.6C86.7998 36.6 87.4998 36.6 87.8998 36.5C88.2998 36.5 88.4998 36.4 88.5998 36.4C88.7998 36.4 88.8998 36.4 89.0998 36.4C89.0998 36.5 89.1998 36.6 89.1998 36.8C89.1998 37.1 89.1998 37.4 89.0998 37.6C88.3998 37.9 87.6998 38.1 86.9998 38.2C86.2998 38.3 85.8998 38.4 85.7998 38.5C85.5998 38.6 85.5998 38.9 85.5998 39.1V40.5C85.5998 40.7 85.5998 41 85.5998 41.5C85.5998 42.2 85.5998 42.7 85.5998 42.9C85.5998 43.1 85.5998 43.5 85.5998 44.1V45.4V46.7C85.5998 46.8 85.5998 46.8 85.5998 46.9C86.3998 46.2 87.5998 45.1 88.9998 43.6C89.6998 42.9 90.1998 42.4 90.5998 42C90.7998 41.8 91.5998 41 93.0998 39.4C93.5998 38.7 93.7998 38.4 93.8998 38.3L93.7998 38.2C93.0998 38.1 92.4998 38 92.1998 38C91.9998 38 91.5998 37.9 90.9998 37.7C90.9998 37.5 90.9998 37.2 90.9998 36.7V36.5H91.7998C92.1998 36.5 92.6998 36.5 93.2998 36.6C93.8998 36.7 94.3998 36.7 94.6998 36.7L98.8998 36.6C99.5998 36.5 100.3 36.5 101.1 36.4V37.8C100.9 37.8 100.5 37.9 99.8998 38C98.4998 38.4 97.4998 38.8 97.0998 39C96.5998 39.2 96.0998 39.6 95.5998 40C95.0998 40.4 94.1998 41.2 92.8998 42.4C91.0998 44.1 89.9998 45.1 89.6998 45.5C89.8998 45.8 90.1998 46.1 90.4998 46.4L91.0998 47C91.1998 47.1 91.2998 47.3 91.4998 47.4L95.1998 51.7L98.2998 55.5C98.6998 55.9 98.8998 56.2 98.9998 56.4L99.2998 56.7C99.4998 57 99.5998 57.1 99.6998 57.2C99.7998 57.3 99.9998 57.4 100.4 57.5C100.6 57.5 101.1 57.8 101.9 58.1C101.9 58.3 101.9 58.5 101.9 58.6C101.9 58.7 101.9 59 101.8 59.3H99.8998C99.6998 59.3 99.2998 59.2 98.7998 59.2L97.0998 59.1H96.6998H94.2998C94.0998 59.1 93.3998 59.1 92.2998 59.2C91.6998 59.2 91.3998 59.3 91.1998 59.3C91.0998 59.3 90.9998 59.3 90.7998 59.3C90.6998 59.1 90.6998 59 90.6998 58.8C90.6998 58.7 90.6998 58.5 90.7998 58.2C91.2998 58 91.7998 57.9 92.3998 57.8C92.7998 57.7 93.0998 57.6 93.1998 57.5C93.2998 57.4 93.3998 57.2 93.3998 57.1C93.3998 57 93.3998 56.9 93.2998 56.8C93.1998 56.5 92.9998 56.2 92.7998 55.9C92.6998 55.8 91.8998 54.8 90.2998 53.1L85.7998 48.1C85.7998 48.5 85.6998 49 85.6998 49.5C85.6998 50.2 85.6998 50.9 85.7998 51.4C85.7998 51.5 85.7998 52.3 85.8998 53.7V55.3L85.9998 57C86.2998 57.3 86.8998 57.6 87.7998 57.8C88.2998 57.9 88.6998 58.1 89.0998 58.4C89.0998 58.6 89.1998 58.8 89.1998 58.9C89.1998 59 89.1998 59.1 89.1998 59.3C88.5998 59.3 88.1998 59.3 87.8998 59.3C87.5998 59.3 87.2998 59.3 87.0998 59.3L84.5998 59.2C84.2998 59.2 83.8998 59.2 83.5998 59.2C83.2998 59.2 82.7998 59.2 82.2998 59.3H79.1998C79.0998 59.3 78.4998 59.3 77.4998 59.4L77.2998 58.2Z" fill="#000780"/>
<path d="M100.3 59.3V58.1C100.5 58 100.9 57.9 101.5 57.8C102.4 57.6 103 57.5 103.1 57.3C103.2 57.1 103.5 56.8 103.8 56.3L107.3 47L111.5 36.1C111.9 36.1 112.3 36.1 112.6 36.1H113.4L113.6 36.4L116.7 43.6C117.4 45.1 118 46.6 118.6 48.1C119.2 49.6 119.6 50.7 120 51.6C120.2 52.2 120.6 53 121 54.1C121.2 54.7 121.5 55.4 122 56.3C122.2 56.8 122.4 57.1 122.5 57.2C122.7 57.4 123.1 57.5 123.5 57.6C123.9 57.7 124.5 57.8 125 58C125.1 58.4 125.1 58.7 125.1 58.9C125.1 59 125.1 59.1 125.1 59.3C124.2 59.3 123.3 59.3 122.2 59.2C121.1 59.1 120.2 59.1 119.4 59.1C118.5 59.1 117.8 59.1 117.4 59.1L114.4 59.3H113.5C113.5 58.9 113.5 58.5 113.6 58.1L115.6 57.7C116.2 57.5 116.5 57.4 116.6 57.3C116.7 57.2 116.8 57 116.8 56.9C116.8 56.8 116.8 56.6 116.7 56.4L116 54.7L114.6 51.3H107.9C107.7 51.9 107.1 53.2 106.4 55.4C106.2 56 106.1 56.4 106.1 56.7C106.1 57 106.2 57.2 106.3 57.4C106.6 57.6 107.1 57.8 107.8 57.9C107.9 57.9 108.3 58 109 58.1C109 58.5 109 58.8 109 59C109 59.1 109 59.3 109 59.4C108.3 59.4 106.5 59.3 103.8 59.1L103.1 59.2C102.2 59.3 101.4 59.4 100.6 59.4H100.3V59.3ZM108.6 49.4C111.3 49.4 113 49.5 113.4 49.5H113.8C113.4 48.5 113 47.2 112.4 45.9C111.8 44.6 111.4 43.5 111 42.7L108.6 49.4Z" fill="#000780"/>
<path d="M124.6 37.9L124.5 36.7H126H126.5C127.2 36.7 127.7 36.6 128 36.6C128.1 36.6 128.6 36.6 129.2 36.6C129.4 36.6 129.5 36.6 129.6 36.6C129.7 36.6 130.1 36.6 130.7 36.6C131.3 36.6 131.7 36.6 131.8 36.6C131.9 36.6 132.1 36.6 132.3 36.6C134.1 38.2 135.6 39.7 136.7 40.8C137.8 41.9 142 46.1 149.1 53.2V52.8L149 50.8C149 49.6 148.9 48.7 148.9 48C148.9 47.3 148.8 46.5 148.8 45.5C148.8 44.5 148.7 43.7 148.7 42.9C148.6 41.4 148.5 40.5 148.5 40.2C148.5 39.4 148.4 39 148.3 38.8C148.1 38.5 147.5 38.3 146.6 38.2C146 38.1 145.5 38 145.2 37.8V36.8L145.7 36.7L149.2 36.6L153.1 36.5C153.4 36.5 153.6 36.5 153.8 36.5V37.6C153.5 37.7 153.3 37.8 153 37.9C152.2 38.1 151.8 38.2 151.7 38.3C151.1 38.6 150.8 38.8 150.7 38.9C150.6 39 150.5 39.3 150.5 39.6C150.5 39.7 150.5 39.9 150.5 40.3C150.5 40.5 150.5 41 150.5 41.8C150.5 43.5 150.6 44.8 150.6 45.8C150.6 46.1 150.6 46.5 150.7 46.9L150.9 53.1C150.9 53.5 150.9 53.8 150.9 54V56.2L151 57.1L150.9 58C150.9 58.5 151 58.8 151 58.9V59.8L149 59.9L146.9 57.7L142.6 53.5L139.6 50.5L137.4 48.3C136 46.9 134.7 45.7 133.5 44.6L130.6 42L130.8 48.5C130.8 48.9 130.8 49.3 130.8 49.7V50.9L130.9 53.2C130.9 54.2 131 55.2 131.1 56.3C131.1 56.6 131.2 56.8 131.2 56.9C131.2 57 131.3 57.2 131.4 57.4C131.9 57.6 132.9 57.7 134.4 57.8C134.5 57.8 134.7 57.9 134.9 57.9L135 59.3H134.3C133.9 59.3 132.7 59.2 130.7 59C128.8 59 127.6 59.1 127 59.1C126.4 59.1 126 59.2 126 59.2C125.9 59.2 125.7 59.2 125.4 59.1C125.4 58.8 125.4 58.6 125.4 58.4C125.4 58.3 125.4 58.1 125.4 57.8C125.7 57.7 126 57.7 126.2 57.7C126.3 57.7 126.5 57.7 126.9 57.7C127.9 57.7 128.5 57.6 128.6 57.5C128.7 57.4 128.9 57 128.9 56.3C129 54.4 129 53.3 129 52.9V51.9V46.2V42.9C129 41.5 128.9 40.6 128.7 40.1C128.6 39.8 128.5 39.6 128.3 39.4C127.9 39 127.4 38.7 126.9 38.5C126.7 38.3 125.9 38.1 124.6 37.9Z" fill="#000780"/>
<path d="M154.3 59.3V58.1C154.5 58 154.9 57.9 155.5 57.8C156.4 57.6 157 57.5 157.1 57.3C157.2 57.1 157.5 56.8 157.8 56.3L161.3 47L165.5 36.1C165.9 36.1 166.3 36.1 166.6 36.1H167.4L167.6 36.4L170.7 43.6C171.4 45.1 172 46.6 172.6 48.1C173.2 49.6 173.6 50.7 174 51.6C174.2 52.2 174.6 53 175 54.1C175.2 54.7 175.5 55.4 176 56.3C176.2 56.8 176.4 57.1 176.5 57.2C176.7 57.4 177.1 57.5 177.5 57.6C177.9 57.7 178.5 57.8 179 58C179.1 58.4 179.1 58.7 179.1 58.9C179.1 59 179.1 59.1 179.1 59.3C178.2 59.3 177.3 59.3 176.2 59.2C175.1 59.1 174.2 59.1 173.4 59.1C172.5 59.1 171.8 59.1 171.4 59.1L168.4 59.3H167.5C167.5 58.9 167.5 58.5 167.6 58.1L169.6 57.7C170.2 57.5 170.5 57.4 170.6 57.3C170.7 57.2 170.8 57 170.8 56.9C170.8 56.8 170.8 56.6 170.7 56.4L170 54.7L168.6 51.3H161.9C161.7 51.9 161.1 53.2 160.4 55.4C160.2 56 160.1 56.4 160.1 56.7C160.1 57 160.2 57.2 160.3 57.4C160.6 57.6 161.1 57.8 161.8 57.9C161.9 57.9 162.3 58 163 58.1C163 58.5 163 58.8 163 59C163 59.1 163 59.3 163 59.4C162.3 59.4 160.5 59.3 157.8 59.1L157.1 59.2C156.2 59.3 155.4 59.4 154.6 59.4H154.3V59.3ZM162.6 49.4C165.3 49.4 167 49.5 167.4 49.5H167.8C167.4 48.5 167 47.2 166.4 45.9C165.8 44.6 165.4 43.5 165 42.7L162.6 49.4Z" fill="#000780"/>
<path d="M193.3 37C193.4 37.4 193.5 38 193.6 38.8C193.7 40 193.8 40.9 193.8 41.6C193.8 41.8 193.8 42 193.7 42.3L193.5 42.4L192.2 42.3H192C191.5 40.8 191 39.7 190.5 39.2C189.6 38.3 188.6 37.8 187.4 37.8C186.3 37.8 185.3 38.1 184.7 38.7C184.1 39.3 183.7 40.1 183.7 40.9C183.7 41.7 184 42.4 184.7 43.1C185.4 43.8 186.8 44.5 188.9 45.1C189.6 45.3 190.5 45.6 191.5 46.1C192.5 46.6 193.3 47.1 193.8 47.6C194.5 48.3 195 49 195.2 49.7C195.5 50.4 195.6 51.2 195.6 52.2C195.6 53.3 195.4 54.4 195 55.5C194.8 56.1 194.4 56.6 193.9 57.1C193.5 57.5 193 57.9 192.3 58.3C191.6 58.7 190.8 59.1 190 59.3C189.2 59.5 188.2 59.6 187 59.6C186.2 59.6 185.2 59.5 184.1 59.2L182 58.6C181.4 58.4 181 58.3 180.9 58.2C180.8 58.2 180.8 58 180.7 57.9V57.7C180.7 57.6 180.7 56.8 180.6 55.3C180.6 54.5 180.6 54 180.6 53.7V53H182.2C182.8 54.3 183.1 55.1 183.3 55.4C183.7 56 184.1 56.5 184.5 56.9C184.9 57.3 185.5 57.6 186.1 57.8C186.7 58 187.4 58.1 188.1 58.1C188.7 58.1 189.4 58 190.2 57.7C191 57.4 191.6 57 192 56.4C192.5 55.8 192.7 55.1 192.7 54.4C192.7 53.5 192.3 52.7 191.5 52C191 51.5 189.7 50.9 187.5 50.2C185.3 49.5 183.8 48.8 183 48.2C182.2 47.6 181.5 46.8 181 45.8C180.5 44.8 180.3 43.8 180.3 42.9C180.3 41 181 39.5 182.3 38.2C183.6 36.9 185.6 36.2 188.2 36.2C188.8 36.2 189.6 36.3 190.7 36.5C191.3 36.4 192.2 36.7 193.3 37Z" fill="#000780"/>
<path d="M197.9 59.2C197.9 58.8 197.9 58.4 198 58L200.2 57.6C200.5 57.5 200.8 57.4 201.2 57.3L201.4 52.9C201.4 51.3 201.3 50.1 201.3 49.3V48.9C201.3 48.4 201.4 47.2 201.4 45.3V44.8V43.3V41.8V41C201.4 40.3 201.3 39.5 201.2 38.6C201.2 38.5 201.1 38.4 201.1 38.2C201 38.2 200.9 38.1 200.8 38.1C200.7 38.1 200.6 38.1 200.5 38C200 37.9 199.5 37.9 199 37.8L198.7 37.7C198.4 37.7 198.1 37.6 198 37.6C198 37.3 197.9 37 197.9 36.9C197.9 36.8 197.9 36.6 198 36.3C198.2 36.3 198.6 36.2 199 36.2C199.4 36.2 199.7 36.2 199.9 36.2C201.3 36.4 202.4 36.4 203.1 36.4C203.4 36.4 203.7 36.4 204.1 36.4C204.5 36.4 204.7 36.4 205 36.4C205.4 36.4 206.3 36.3 207.8 36.2C208 36.1 208.3 36.1 208.6 36.1C209 36.1 209.4 36.1 209.7 36.2C209.7 36.4 209.7 36.6 209.7 36.7C209.7 36.9 209.7 37.1 209.6 37.4L206.5 37.9C206.3 38 206.1 38.2 206.1 38.4V39.1V39.4V40.2V40.8V40.9C206.1 41 206.1 41.1 206.1 41.2V43.4C206.1 43.6 206.1 43.8 206.1 43.9C206.1 44 206.1 44.1 206.1 44.5C206.1 44.7 206.1 44.9 206.1 45.1C206.1 45.3 206.1 45.7 206.1 46.3C206.4 46.4 206.7 46.4 206.9 46.4L209.5 46.5H210.8H214L217.1 46.4C217.5 46.4 217.9 46.4 218.4 46.3C218.4 45.9 218.4 44.9 218.5 43.4V42.6L218.4 39.6L218.3 38.4C218.3 38.3 218.2 38.2 218.1 38.2C217.7 38 216.9 37.7 215.6 37.4C215.4 37.4 215.2 37.3 215 37.2C215 36.8 215.1 36.5 215.1 36.2C215.4 36.2 215.5 36.2 215.6 36.2H217.3C218.4 36.3 219.5 36.4 220.6 36.4C220.9 36.4 221.1 36.4 221.2 36.4L223.5 36.3C223.7 36.3 223.9 36.3 224.1 36.3C224.5 36.2 225 36.2 225.4 36.2C225.7 36.2 226.1 36.2 226.6 36.3C226.6 36.8 226.6 37.2 226.5 37.5C225.4 37.7 224.7 37.9 224.4 38C224.1 38.1 223.7 38.2 223.4 38.4L223.3 38.8V39.1V39.6V39.8C223.3 40 223.3 40.2 223.3 40.4V40.9C223.3 41.4 223.3 41.7 223.3 41.8V44V45.7V47.9C223.3 48.4 223.3 49.5 223.4 51.1V53.6V55.7C223.4 56.1 223.4 56.6 223.4 57.1C223.6 57.2 223.9 57.2 224.1 57.3C225.2 57.5 226 57.8 226.6 58L226.7 59.2C226.2 59.2 226 59.2 225.9 59.2C225.3 59.2 224.7 59.2 224 59.1C223 59 221.5 58.9 219.4 58.9C218.4 58.9 217.2 59 215.7 59.1C215.5 59.1 215.3 59.1 215.1 59C215.1 58.5 215.1 58.1 215.2 57.9L216.6 57.6L218 57.4C218.1 57.4 218.3 57.3 218.5 57.2C218.6 56.3 218.7 54.7 218.7 52.5V51C218.6 50.4 218.6 49.6 218.6 48.8C218.2 48.8 217.7 48.7 217.2 48.7L209.1 48.6H208.9H208.8C208.7 48.6 208.6 48.6 208.5 48.6C208.2 48.6 207.9 48.6 207.7 48.6H207.2C207 48.6 206.7 48.6 206.4 48.7L206.3 50V50.2C206.3 50.5 206.3 50.7 206.3 50.8V56.2C206.3 56.5 206.3 56.8 206.4 57.1L206.6 57.2L209.2 57.6C209.3 57.6 209.4 57.7 209.5 57.7C209.7 57.7 209.8 57.8 209.9 57.9C209.9 58.2 210 58.4 210 58.4C210 58.6 210 58.8 209.9 59C209.5 59 209.1 59 208.8 59C208.5 59 208.3 59 208.1 59C208 59 207.9 59 207.8 59L205.3 58.9C204.7 58.8 203.9 58.8 202.8 58.8H202.4C201.9 58.8 201.6 58.8 201.5 58.9C200.6 59.2 199.5 59.2 197.9 59.2Z" fill="#000780"/>
<path d="M229.4 59.3V58C229.6 57.9 230 57.8 230.6 57.7C231.4 57.5 231.9 57.3 232.3 57.1C232.5 56.7 232.6 56.2 232.6 55.6V53.5V49.5V48.6C232.7 46.3 232.7 45.1 232.7 45V42.7L232.8 41.8L232.7 39.8V39C232.7 38.9 232.6 38.7 232.6 38.4C232.1 38.2 231.3 38 230.3 38C230 38 229.8 38 229.7 37.9V36.4L234.7 36.6C235.3 36.6 235.7 36.6 235.9 36.6C236.6 36.6 237.7 36.6 239.2 36.5C240.1 36.4 240.6 36.4 240.8 36.4C240.8 36.6 240.8 36.8 240.8 37C240.8 37.2 240.8 37.5 240.8 37.8C240.3 38 239.8 38.1 239.2 38.3C238.6 38.4 238.1 38.6 237.7 38.7C237.6 39 237.6 39.4 237.6 40C237.6 40.5 237.6 40.9 237.7 41.2C237.7 43.2 237.6 44.7 237.6 45.8V50.4L237.5 52.8L237.6 56.3L237.5 57C237.5 57.1 237.5 57.2 237.6 57.4C238.3 57.6 239 57.7 239.5 57.7C239.6 57.7 240 57.8 240.6 57.8C240.6 58.2 240.7 58.4 240.7 58.7C240.7 58.8 240.7 59 240.7 59.3C240.5 59.3 240.4 59.3 240.3 59.3C239.9 59.3 239.7 59.3 239.7 59.3C239.6 59.3 239.5 59.3 239.2 59.2C239 59.2 238.3 59.1 236.9 59H233.8C233.2 59 232.3 59.1 231.1 59.2C230.1 59.2 229.6 59.3 229.4 59.3Z" fill="#000780"/>
<path d="M243.7 58.2C244 58 244.5 57.9 245.1 57.8C245.7 57.7 246.2 57.6 246.7 57.4C246.8 57.2 246.8 57 246.8 56.9C246.8 56.7 246.8 56.2 246.8 55.2V51.3L246.9 49.2V47.6V46.7C246.9 45.4 247 44.2 247 43.1C247 40.7 247 39.1 246.9 38.4L245.9 38.2C245 38.1 244.3 38.1 244 38V36.9L244.1 36.7C244.7 36.6 245.2 36.6 245.7 36.6C246 36.6 246.5 36.6 247.3 36.6C248.1 36.7 248.6 36.7 248.7 36.7L249.6 36.6L251.8 36.5C253.2 36.4 254.6 36.3 256.1 36.3C258.5 36.3 260.4 36.9 261.8 38.1C263.2 39.3 263.9 40.7 263.9 42.3C263.9 43.5 263.5 44.6 262.8 45.5C262 46.5 260.9 47.2 259.3 47.7C259.4 47.9 259.6 48.2 259.9 48.6C260.4 49.3 260.8 49.9 261.1 50.4L263.9 55C264.6 56.2 265.1 56.9 265.3 57.1C265.5 57.3 266 57.5 266.6 57.8C267.1 58 267.5 58.2 267.8 58.4C267.9 58.6 267.9 58.8 267.9 58.9C267.9 59 267.9 59.1 267.9 59.3H267.4H267L266.1 59.2H265.4C265 59.1 264.6 59.1 264 59.1H262.2C262.1 59.1 261.7 59.1 261 59.2C260.7 59.2 260.4 59.3 260.2 59.3L259.6 58.1C259.1 57.2 258.8 56.6 258.6 56.1C258.1 55 257.2 53.2 255.9 50.7C255.3 49.6 254.9 48.9 254.7 48.7C254.3 48.5 253.7 48.3 252.9 48.3C252.7 48.3 252.3 48.3 251.7 48.3C251.7 48.6 251.6 49 251.6 49.5L251.7 53.4L251.6 56.7C251.9 56.9 252.4 57.1 252.9 57.2C253.8 57.4 254.6 57.6 255.3 57.9C255.3 58.5 255.3 58.9 255.2 59.2C255 59.2 254.8 59.2 254.8 59.2H254.1C251.6 59 250.1 58.9 249.6 58.9C249.3 58.9 249.1 58.9 248.9 58.9L246.5 59.1C245.8 59.2 245.1 59.2 244.5 59.2H243.7C243.7 58.9 243.7 58.7 243.7 58.6C243.6 58.6 243.6 58.4 243.7 58.2ZM251.6 46.8C252.2 46.8 252.6 46.8 252.8 46.8C254.8 46.8 256.2 46.4 257 45.7C257.8 45 258.2 44 258.2 42.8C258.2 42.1 258.1 41.4 257.9 40.7C257.7 40 257.4 39.6 257.1 39.2C256.7 38.7 256.1 38.4 255.4 38.2C254.9 38 254.1 37.9 252.9 37.9C252.4 37.9 251.9 37.9 251.5 38V38.3V40.7L251.4 42.1V44C251.4 44.5 251.4 45.2 251.3 46.1V46.8H251.6Z" fill="#000780"/>
<path d="M268.9 47.6C268.9 46.1 269.2 44.7 269.7 43.2C270.1 42.1 270.7 41.2 271.4 40.3C272.1 39.4 273.1 38.6 274.2 38C275.3 37.4 276.4 36.8 277.6 36.5C278.8 36.2 280.1 36.1 281.5 36.1C283.9 36.1 286 36.6 287.8 37.5C289.6 38.4 291 39.7 292 41.2C293.3 43.2 294 45.4 294 47.6C294 50.9 292.9 53.8 290.6 56.1C288.3 58.5 285.2 59.7 281.2 59.7C280.2 59.7 279.3 59.6 278.4 59.5C277.7 59.4 277.2 59.3 276.7 59.1C275.8 58.8 275.3 58.6 275.2 58.6C273.9 57.9 272.9 57.1 272.1 56.4C271.3 55.6 270.7 54.8 270.1 53.8C269.8 53.3 269.5 52.3 269.1 50.9C269 49.9 268.9 48.8 268.9 47.6ZM280.8 37.8C279.8 37.8 278.9 38 278.1 38.5C277.3 39 276.7 39.5 276.3 40.1C275.6 41.1 275.2 42.1 274.9 43.3C274.6 44.5 274.5 45.9 274.5 47.5C274.5 48.5 274.5 49.2 274.6 49.7C274.6 49.8 274.7 50.1 274.7 50.4C274.8 51.3 274.9 51.9 275.1 52.3C275.6 53.8 276 54.7 276.2 55.1C276.6 55.7 277.1 56.3 277.8 56.9C278.2 57.2 278.7 57.5 279.3 57.7C279.9 57.9 280.6 58.1 281.3 58.1C282.6 58.1 283.7 57.8 284.8 57.2C285.9 56.6 286.8 55.6 287.4 54.2C288 52.8 288.4 50.9 288.4 48.7C288.4 47.8 288.3 46.5 288.2 44.9L288.1 44.6C288.1 44.5 288 44.3 287.9 43.9C287.5 42 286.6 40.5 285.4 39.5C284.2 38.3 282.7 37.8 280.8 37.8Z" fill="#000780"/>
<path d="M22.3001 26C21.0001 25.2 19.5001 24.9 17.7001 24.9C16.5001 24.9 15.5001 25.1 14.6001 25.4C14.6001 25.8 14.6001 26 14.6001 26.2V29.2V31.8C14.6001 32.6 14.6001 33.4 14.6001 34V35.7L14.7001 38.5L14.6001 40.2C14.6001 41.8 14.9001 42.9 15.5001 43.5C16.4001 44.3 17.6001 44.7 19.1001 44.7C20.3001 44.7 21.1001 44.6 21.7001 44.4C22.9001 44 23.8001 43.4 24.5001 42.6C25.2001 41.9 25.7001 40.8 26.1001 39.4C26.5001 38 26.6001 36.6 26.6001 35.2C26.6001 32.8 26.2001 30.9 25.5001 29.4C24.6001 27.9 23.6001 26.8 22.3001 26Z" fill="#000780"/>
<path d="M33.8 1C15.1 1 0 16.1 0 34.8C0 53.5 15.1 68.6 33.8 68.6C52.5 68.6 67.6 53.5 67.6 34.8C67.6 16.1 52.4 1 33.8 1ZM30.3 41.3C29.3 43 27.8 44.4 25.8 45.4C24.4 46.1 22.6 46.5 20.2 46.5L16.6 46.4H15.5H14.1H13.7H12.2H10.2C10.1 46.4 9.5 46.4 8.4 46.5C8 46.5 7.5 46.5 6.9 46.5C6.5 46.5 6.2 46.5 6 46.5C6 46.2 6 45.8 6 45.1C6.2 45.1 6.5 45 7.1 44.9C8.2 44.7 8.9 44.5 9.3 44.1C9.5 43.9 9.6 43.5 9.7 42.9C9.7 42.8 9.8 41 9.8 37.5V35.6V33.2L9.7 27.2V26.5C9.7 26.2 9.6 26 9.5 25.8C9.4 25.7 9.2 25.7 8.8 25.7C8.5 25.7 8.1 25.7 7.7 25.8C7.2 25.8 6.7 25.9 6.3 25.9C6.2 25.9 6.1 25.9 6 26V24.4C6.7 24.2 7.7 24 9 23.7C11.1 23.3 13.8 23.2 16.9 23.2C19.5 23.2 21.4 23.3 22.7 23.6C24.5 24.1 26 24.7 27.2 25.7C28.7 26.9 29.9 28.3 30.7 29.9C31.5 31.5 31.9 33.2 31.9 35.1C31.8 37.5 31.3 39.6 30.3 41.3ZM57.2 46.5C57 46.5 56.6 46.4 56.1 46.4L54.4 46.3H54H51.6C51.4 46.3 50.7 46.3 49.6 46.4C49 46.4 48.7 46.5 48.5 46.5C48.4 46.5 48.3 46.5 48.1 46.5C48 46.3 48 46.1 48 46C48 45.9 48 45.7 48.1 45.4C48.6 45.2 49.1 45.1 49.7 45C50.1 44.9 50.4 44.8 50.5 44.7C50.6 44.6 50.7 44.4 50.7 44.3C50.7 44.2 50.7 44.1 50.6 44C50.5 43.7 50.3 43.4 50.1 43.1C50 43 49.2 42 47.6 40.2L43.1 35.2C43.1 35.6 43 36.1 43 36.6C43 37.3 43 38 43.1 38.5C43.1 38.6 43.1 39.4 43.2 40.8V42.4L43.3 44.2C43.6 44.5 44.2 44.8 45.1 45C45.6 45.1 46 45.3 46.4 45.6C46.4 45.8 46.5 46 46.5 46.1C46.5 46.2 46.5 46.3 46.5 46.5C45.9 46.5 45.5 46.5 45.2 46.5C44.9 46.5 44.6 46.5 44.4 46.5L41.9 46.4C41.6 46.4 41.2 46.4 40.9 46.4C40.6 46.4 40.1 46.4 39.6 46.5H36.5C36.4 46.5 35.8 46.5 34.8 46.6V45.6C36 45 37.1 44.5 38 44.3C38.2 44.2 38.4 44 38.5 43.7C38.6 43.5 38.6 42.5 38.6 40.9C38.6 40.7 38.6 40.3 38.5 39.6V39.2V35.4V32.7V31.9V31.2C38.5 31 38.5 30.8 38.6 30.4L38.5 29.6V29.4C38.5 29.2 38.5 29 38.5 28.7C38.5 27.4 38.4 26.5 38.2 25.9C37.8 25.6 37.1 25.3 36.1 25C35.5 24.9 35.1 24.7 34.8 24.5L34.9 23.4C35.1 23.4 35.3 23.4 35.5 23.4C36.5 23.4 37.4 23.5 38.2 23.6C39 23.7 40.2 23.8 41.6 23.8L43.4 23.7C44.3 23.7 45 23.7 45.5 23.6C45.9 23.6 46.1 23.5 46.2 23.5C46.4 23.5 46.5 23.5 46.7 23.5C46.7 23.6 46.8 23.7 46.8 23.9C46.8 24.2 46.8 24.5 46.7 24.7C46 25 45.2 25.2 44.6 25.3C44 25.4 43.5 25.5 43.4 25.6C43.2 25.7 43.2 26 43.2 26.2V27.6C43.2 27.8 43.2 28.1 43.2 28.6C43.2 29.3 43.2 29.8 43.2 30.1C43.2 30.3 43.2 30.7 43.2 31.3V32.7V34C43.2 34.1 43.2 34.1 43.2 34.2C44.1 33.5 45.2 32.4 46.6 30.9C47.3 30.2 47.8 29.7 48.2 29.3C48.4 29.1 49.2 28.3 50.7 26.7C51.2 26 51.4 25.7 51.5 25.5L51.4 25.4C50.7 25.3 50.1 25.2 49.8 25.2C49.6 25.2 49.2 25.1 48.6 24.9C48.6 24.7 48.6 24.4 48.6 23.9V23.7H49C49.4 23.7 49.9 23.7 50.5 23.8C51.1 23.9 51.6 23.9 51.9 23.9L56.2 23.8C56.9 23.7 57.6 23.7 58.4 23.6V25C58.2 25 57.8 25.1 57.2 25.2C55.8 25.7 54.8 26 54.3 26.3C53.8 26.5 53.3 26.9 52.8 27.3C52.3 27.7 51.4 28.5 50.1 29.8C48.3 31.5 47.2 32.5 46.9 32.9C47.1 33.2 47.4 33.5 47.7 33.8L48.3 34.4C48.4 34.5 48.5 34.7 48.7 34.8L52.5 39.1L55.6 43C56 43.4 56.2 43.8 56.3 43.9L56.6 44.2C56.8 44.5 56.9 44.6 57 44.7C57.1 44.8 57.3 44.9 57.7 45C57.9 45 58.4 45.3 59.2 45.6C59.2 45.8 59.2 46 59.2 46.1C59.2 46.2 59.2 46.5 59.1 46.8L57.2 46.5Z" fill="#000780"/>
</svg>
