<svg width="133" height="133" viewBox="0 0 133 133" fill="none" xmlns="http://www.w3.org/2000/svg">
<path d="M0 64.9851C2.06367 61.9485 4.51769 59.1965 7.29895 56.7998C17.451 47.3046 29.5423 40.125 42.7385 35.7564C51.0031 32.9358 59.7058 31.6173 68.4351 31.8634C78.5019 32.272 88.399 34.593 97.5979 38.7026C108.921 43.5851 119.199 50.6004 127.872 59.3659C129.143 60.6544 130.342 62.0184 131.495 63.414C131.88 63.7859 132.186 64.2313 132.395 64.7239C132.604 65.2165 132.711 65.7462 132.711 66.2813C132.711 66.8163 132.604 67.346 132.395 67.8386C132.186 68.3312 131.88 68.7766 131.495 69.1485C126.795 74.7363 121.364 79.6666 115.349 83.8068C104.452 91.716 91.9364 97.1091 78.7035 99.5972C67.1467 101.643 55.2644 100.823 44.0984 97.2081C29.2367 92.5911 15.7411 84.3844 4.80422 73.3133C2.96382 71.6143 1.34962 69.6855 0.00137149 67.5746L0 64.9851ZM66.3081 39.9458C61.1013 39.9404 56.0098 41.4787 51.677 44.3663C47.3443 47.2538 43.9648 51.3609 41.9657 56.1686C39.9666 60.9763 39.4376 66.2688 40.4456 71.3771C41.4535 76.4854 43.9532 81.1801 47.6288 84.8681C51.3043 88.556 55.9906 91.0716 61.0954 92.0969C66.2002 93.1222 71.4945 92.6111 76.3089 90.6282C81.1233 88.6454 85.2419 85.2798 88.1441 80.9569C91.0462 76.6339 92.6017 71.5477 92.6139 66.341C92.6191 59.3544 89.852 52.6512 84.9202 47.7026C79.9883 42.7541 73.2946 39.9644 66.3081 39.9458ZM94.1742 86.447C94.767 86.2549 94.933 86.2137 95.0881 86.1479C95.5643 85.9461 96.0487 85.7499 96.5084 85.5262C106.025 80.897 114.719 74.7406 122.246 67.3015C123.057 66.5111 123.086 66.0665 122.263 65.2651C114.727 57.7701 105.986 51.5933 96.4054 46.9923C95.803 46.7069 95.1828 46.4571 94.5721 46.1923C98.5416 52.1397 100.677 59.122 100.713 66.2723C100.719 73.519 98.4299 80.5815 94.1742 86.447ZM38.2224 46.1224C35.8269 47.0829 33.5036 48.2147 31.2706 49.509C23.5494 53.8296 16.4504 59.1786 10.1683 65.4092C9.46709 66.0953 9.45886 66.5262 10.1807 67.1615C11.3759 68.214 12.4874 69.3571 13.6662 70.4371C20.4867 76.6705 28.2105 81.8368 36.5757 85.7609C37.0209 86.0751 37.554 86.2408 38.0989 86.2343C29.7145 72.8947 29.7145 59.6595 38.2224 46.1224Z" fill="#989898" fill-opacity="0.3"/>
<path d="M67.5746 0C68.4716 0.385623 69.2203 1.05024 69.7095 1.89521C70.1988 2.74017 70.4024 3.72045 70.2903 4.69036C70.1832 7.40191 70.2821 10.1189 70.256 12.8332C70.256 13.8886 69.8367 14.9009 69.0904 15.6472C68.3441 16.3935 67.3319 16.8127 66.2765 16.8127C65.2211 16.8127 64.2089 16.3935 63.4626 15.6472C62.7163 14.9009 62.297 13.8886 62.297 12.8332C62.2723 10.1189 62.3725 7.40054 62.2627 4.69036C62.1501 3.72039 62.3535 2.73993 62.8428 1.89487C63.3321 1.04982 64.0811 0.385261 64.9784 0H67.5746Z" fill="#989898" fill-opacity="0.3"/>
<path d="M36.2107 5.61789C36.8657 5.64622 37.5021 5.84458 38.0571 6.19346C38.6122 6.54233 39.0669 7.02973 39.3765 7.60766C41.1508 10.6568 42.921 13.7087 44.6088 16.8017C45.1087 17.7169 45.2318 18.791 44.9522 19.7957C44.6726 20.8003 44.0121 21.6563 43.1113 22.1817C42.2105 22.7071 41.1403 22.8604 40.1282 22.6091C39.1161 22.3578 38.2419 21.7218 37.6914 20.8361C35.8292 17.7403 34.0096 14.613 32.3396 11.4116C32.0211 10.7788 31.8762 10.0728 31.9196 9.36576C31.9631 8.65868 32.1934 7.97574 32.5869 7.38671C32.9805 6.79768 33.5233 6.32362 34.1599 6.01288C34.7965 5.70214 35.5042 5.56581 36.2107 5.61789Z" fill="#989898" fill-opacity="0.3"/>
<path d="M96.2588 5.61792C99.5096 5.6385 101.565 8.50649 100.362 11.0602C98.674 14.5575 96.7536 17.9375 94.6135 21.1778C94.0261 21.9469 93.1785 22.4758 92.2294 22.6652C91.2803 22.8545 90.2947 22.6915 89.4571 22.2067C88.6195 21.7218 87.9873 20.9484 87.6788 20.0311C87.3703 19.1137 87.4066 18.1155 87.7811 17.223C89.565 13.8253 91.5039 10.51 93.4745 7.21663C93.7682 6.73894 94.177 6.34232 94.6633 6.06308C95.1496 5.78384 95.6981 5.63081 96.2588 5.61792Z" fill="#989898" fill-opacity="0.3"/>
<path d="M36.2628 126.942C33.0353 126.899 30.992 124.003 32.1968 121.48C33.8954 118 35.8112 114.63 37.9328 111.39C38.4942 110.613 39.3235 110.07 40.2609 109.867C41.1983 109.665 42.1776 109.816 43.0101 110.292C43.8897 110.736 44.5653 111.501 44.8973 112.428C45.2293 113.356 45.1923 114.375 44.794 115.276C43.0101 118.707 41.0478 122.05 39.0567 125.368C38.761 125.844 38.3499 126.238 37.8615 126.513C37.3732 126.788 36.8233 126.936 36.2628 126.942Z" fill="#989898" fill-opacity="0.3"/>
<path d="M96.259 126.936C95.6241 126.895 95.01 126.694 94.4743 126.35C93.9386 126.007 93.4988 125.534 93.1961 124.974C91.4122 121.918 89.642 118.857 87.9487 115.751C87.4453 114.834 87.3212 113.755 87.6029 112.747C87.8846 111.739 88.5497 110.881 89.456 110.357C90.3622 109.833 91.4375 109.685 92.4517 109.944C93.466 110.203 94.3385 110.849 94.8826 111.743C96.7282 114.81 98.53 117.908 100.192 121.074C100.526 121.715 100.682 122.433 100.642 123.155C100.602 123.876 100.369 124.573 99.9665 125.173C99.564 125.773 99.0072 126.254 98.3548 126.564C97.7023 126.874 96.9783 127.003 96.259 126.936Z" fill="#989898" fill-opacity="0.3"/>
<path d="M62.2996 124.088C62.2996 122.537 62.2722 120.988 62.3079 119.439C62.3365 118.398 62.7668 117.408 63.5086 116.677C64.2504 115.946 65.2461 115.531 66.2874 115.518C67.3107 115.526 68.2917 115.928 69.0264 116.641C69.7611 117.353 70.1931 118.321 70.2326 119.344C70.2884 122.528 70.2884 125.714 70.2326 128.9C70.2198 129.408 70.1064 129.908 69.899 130.372C69.6916 130.836 69.3942 131.254 69.0241 131.602C68.654 131.951 68.2185 132.222 67.7429 132.401C67.2672 132.579 66.7608 132.662 66.2531 132.643C65.2307 132.656 64.2441 132.268 63.5046 131.561C62.7651 130.855 62.3316 129.888 62.2969 128.866C62.2969 128.78 62.2969 128.694 62.2969 128.608C62.2978 127.101 62.2987 125.594 62.2996 124.088Z" fill="#989898" fill-opacity="0.3"/>
<path d="M52.8784 66.2792C52.8784 63.6261 53.666 61.0326 55.1412 58.8275C56.6164 56.6224 58.713 54.9048 61.1653 53.8923C63.6176 52.8798 66.3153 52.6179 68.9165 53.1399C71.5177 53.6619 73.9055 54.9443 75.7773 56.8246C77.649 58.7048 78.9206 61.0983 79.4309 63.7019C79.9411 66.3054 79.6671 69.0018 78.6435 71.4495C77.6199 73.8972 75.8929 75.986 73.6811 77.4513C71.4693 78.9165 68.8724 79.6924 66.2194 79.6805C62.6835 79.6392 59.305 78.2122 56.8102 75.7061C54.3155 73.2001 52.9037 69.8152 52.8784 66.2792ZM66.3044 60.9398C65.2508 60.9348 64.2192 61.2415 63.3395 61.8214C62.4599 62.4013 61.7714 63.2286 61.3607 64.1989C60.95 65.1692 60.8355 66.2393 61.0316 67.2745C61.2277 68.3098 61.7257 69.2638 62.4628 70.0167C63.1999 70.7696 64.1432 71.2876 65.174 71.5057C66.2049 71.7237 67.2772 71.6318 68.256 71.2418C69.2348 70.8518 70.0763 70.181 70.6748 69.3138C71.2732 68.4466 71.6018 67.4218 71.6191 66.3683C71.6022 64.9533 71.0404 63.5994 70.0504 62.5883C69.0605 61.5771 67.7187 60.9867 66.3044 60.9398Z" fill="#989898" fill-opacity="0.3"/>
</svg>
