<svg width="134" height="133" viewBox="0 0 134 133" fill="none" xmlns="http://www.w3.org/2000/svg">
<path d="M71.9053 0.00496224C75.6841 0.412051 79.4305 1.07731 83.1183 1.99604C84.2018 2.29304 85.2985 2.56186 86.3521 2.94514C87.2105 3.20873 87.9299 3.80123 88.353 4.59332C88.7761 5.38541 88.8685 6.3127 88.6103 7.17277C88.4908 7.61355 88.2827 8.02534 87.9988 8.38305C87.7149 8.74077 87.3611 9.03693 86.959 9.25337C86.5568 9.46981 86.1148 9.60199 85.6599 9.64194C85.2049 9.6819 84.7466 9.62873 84.3129 9.48568C78.0972 7.59602 71.6229 6.69624 65.1274 6.81934C52.2988 7.02242 39.8918 11.4323 29.8128 19.3713C17.6203 28.6849 9.57582 42.4166 7.41339 57.6062C5.58353 69.6734 7.50568 82.0114 12.9197 92.95C18.3336 103.889 26.9779 112.9 37.6824 118.763C47.6086 124.31 58.9382 126.839 70.281 126.039C83.3946 125.215 95.8679 120.078 105.758 111.428C115.648 102.778 122.4 91.0993 124.962 78.212C126.893 68.805 126.48 59.0673 123.759 49.8577C123.64 49.4429 123.518 49.028 123.417 48.6066C123.283 48.1711 123.238 47.7131 123.284 47.2598C123.33 46.8065 123.467 46.367 123.686 45.9676C123.905 45.5682 124.203 45.2169 124.56 44.9345C124.918 44.6522 125.329 44.4447 125.768 44.3242C126.195 44.1945 126.642 44.1504 127.085 44.1947C127.529 44.2389 127.959 44.3705 128.351 44.5818C128.743 44.7932 129.089 45.0801 129.37 45.426C129.651 45.7719 129.86 46.17 129.986 46.5973C130.834 49.0964 131.476 51.6608 131.906 54.2646C135.251 73.8632 131.076 91.7196 118.884 107.426C113.838 114.125 107.517 119.759 100.284 124.005C93.0508 128.25 85.0493 131.023 76.7403 132.163C53.7901 135.539 34.0355 128.679 17.9511 111.995C8.23068 101.897 2.07574 88.8987 0.423107 74.9798C0.285393 73.9544 0.141033 72.9307 0 71.907V61.0043C0.343457 58.6582 0.534283 56.2772 1.05362 53.9709C7.09204 27.1525 23.2998 9.83861 49.6768 2.02925C53.3915 1.04761 57.1798 0.368942 61.0043 0L71.9053 0.00496224Z" fill="#444444" fill-opacity="0.4"/>
<path d="M66.4084 26.8145C57.1099 26.8166 48.1132 30.1145 41.0165 36.1226C33.9197 42.1306 29.1823 50.4598 27.6458 59.6304C25.9473 69.7077 28.2082 80.0515 33.9564 88.5011C39.7046 96.9507 48.4952 102.852 58.4922 104.973C63.6692 106.058 69.011 106.095 74.2028 105.084C79.3946 104.072 84.3315 102.032 88.7227 99.0827C93.1138 96.1339 96.8704 92.3361 99.7714 87.9131C102.672 83.4901 104.659 78.5314 105.614 73.3289C106.14 70.1276 106.302 66.8769 106.097 63.639C106.018 63.013 106.109 62.3773 106.359 61.7982C106.61 61.219 107.011 60.7175 107.52 60.3455C108.003 59.9702 108.582 59.7397 109.19 59.6809C109.799 59.6221 110.411 59.7375 110.957 60.0137C111.569 60.2981 112.087 60.7515 112.45 61.3207C112.813 61.8898 113.006 62.5508 113.006 63.2259C113.749 71.9955 111.829 80.7855 107.495 88.4459C104.303 94.4531 99.8056 99.6693 94.3342 103.712C88.8628 107.755 82.5558 110.522 75.8758 111.809C66.284 113.746 56.3257 112.607 47.4185 108.556C38.5112 104.504 31.109 97.7465 26.2653 89.244C21.8346 81.5463 19.7379 72.7262 20.2307 63.8581C20.7707 53.3512 24.8597 43.3384 31.8288 35.4569C38.798 27.5755 48.235 22.2917 58.5968 20.4697C62.2468 19.7358 65.9863 19.5547 69.6902 19.9321C70.6503 20.0102 71.5414 20.4619 72.1719 21.1901C72.8023 21.9183 73.1218 22.8649 73.0617 23.8263C73.0317 24.2704 72.9107 24.7036 72.7064 25.099C72.502 25.4945 72.2186 25.8437 71.8737 26.1251C71.5288 26.4065 71.1298 26.6141 70.7014 26.7349C70.273 26.8558 69.8244 26.8874 69.3833 26.8278C68.3977 26.8096 67.4022 26.8145 66.4084 26.8145Z" fill="#444444" fill-opacity="0.4"/>
<path d="M86.387 35.4012C86.387 33.6723 86.4019 31.9417 86.387 30.2128C86.3707 29.6496 86.4723 29.0894 86.6855 28.5679C86.8987 28.0464 87.2186 27.5752 87.6247 27.1847C94.1078 20.7049 100.59 14.2241 107.071 7.74213C107.531 7.18684 108.157 6.79351 108.857 6.61975C109.557 6.44599 110.295 6.50086 110.962 6.77641C111.657 7.04369 112.25 7.52532 112.654 8.15166C113.058 8.77801 113.253 9.51667 113.21 10.2608C113.258 12.9404 113.266 15.6234 113.21 18.3014C113.188 19.3815 113.573 19.7415 114.64 19.72C117.32 19.6685 120.001 19.6752 122.681 19.72C123.424 19.679 124.162 19.8756 124.786 20.2816C125.41 20.6876 125.889 21.2818 126.153 21.9781C126.423 22.6465 126.474 23.3833 126.298 24.0823C126.122 24.7813 125.728 25.4063 125.174 25.8674L124.809 26.2357C118.573 32.4732 112.34 38.7135 106.11 44.9565C105.629 45.4807 105.04 45.8947 104.384 46.17C103.728 46.4452 103.02 46.5751 102.309 46.551C99.0666 46.4946 95.8229 46.5643 92.5808 46.5162C92.1544 46.4987 91.7294 46.5757 91.3362 46.7415C90.943 46.9073 90.5912 47.1578 90.306 47.4752C83.4479 54.3731 76.5732 61.2561 69.682 68.1241C69.085 68.8733 68.2564 69.4032 67.3259 69.6307C66.5985 69.7795 65.8424 69.6868 65.1725 69.3666C64.5025 69.0465 63.9554 68.5164 63.6143 67.857C63.2636 67.1801 63.1466 66.4063 63.2817 65.656C63.4167 64.9057 63.7962 64.2211 64.3609 63.709C68.2579 59.7799 72.1686 55.8637 76.0932 51.9601C79.2457 48.8076 82.38 45.6551 85.5507 42.5225C85.8371 42.2649 86.0621 41.9464 86.2091 41.5903C86.3561 41.2343 86.4214 40.8497 86.4002 40.4651C86.3521 38.7744 86.3853 37.082 86.387 35.4012ZM106.319 18.8306L105.853 18.7592C101.787 22.8143 97.7199 26.869 93.6527 30.923C93.511 31.0865 93.4052 31.2778 93.342 31.4847C93.2788 31.6917 93.2597 31.9095 93.286 32.1243C93.286 34.2431 93.3208 36.3618 93.271 38.479C93.2494 39.4198 93.6543 39.6637 94.5138 39.6404C96.5446 39.6006 98.5761 39.6006 100.608 39.6404C100.951 39.6525 101.292 39.5887 101.608 39.4536C101.923 39.3185 102.205 39.1154 102.433 38.8589C106.148 35.1158 109.886 31.3925 113.608 27.6593C113.824 27.4419 114.225 27.281 114.039 26.7948C112.546 26.7251 111.031 26.7218 109.536 26.5708C109.111 26.5718 108.689 26.4875 108.296 26.3227C107.904 26.1579 107.548 25.9161 107.251 25.6115C106.953 25.3069 106.72 24.9457 106.564 24.5494C106.409 24.153 106.335 23.7294 106.346 23.3038C106.226 21.8304 106.319 20.3239 106.319 18.8306Z" fill="#444444" fill-opacity="0.4"/>
<path d="M66.701 85.8974C71.8446 85.9255 76.7925 83.9284 80.4754 80.3377C84.1583 76.747 86.2803 71.8512 86.3827 66.7086C86.3333 66.2105 86.3893 65.7076 86.5469 65.2324C86.7046 64.7573 86.9604 64.3206 87.2977 63.9508C87.635 63.5809 88.0463 63.2861 88.505 63.0855C88.9636 62.8849 89.4593 62.7829 89.9599 62.7862C91.9642 62.836 93.2551 64.4223 93.2883 66.7933C93.2832 68.5243 93.0862 70.2493 92.7009 71.9368C91.4354 77.5916 88.3693 82.6831 83.9632 86.4465C79.557 90.21 74.0487 92.4422 68.2657 92.808C61.5206 93.2132 54.8741 91.0371 49.6746 86.7214C44.4751 82.4056 41.1122 76.2735 40.2682 69.5691C39.3845 62.6612 41.2473 55.6823 45.456 50.1337C49.6648 44.5851 55.8832 40.9101 62.7737 39.8991C64.0129 39.7072 65.2664 39.6223 66.5202 39.6453C67.4392 39.6088 68.3354 39.9372 69.0133 40.5588C69.6912 41.1805 70.0959 42.0449 70.139 42.9637C70.1525 43.421 70.0745 43.8764 69.9096 44.3032C69.7447 44.73 69.4963 45.1196 69.1788 45.4491C68.8614 45.7786 68.4814 46.0413 68.061 46.222C67.6406 46.4026 67.1884 46.4975 66.7309 46.5011C64.9174 46.5645 63.1159 46.8209 61.3567 47.266C56.9466 48.515 53.1066 51.2559 50.4922 55.0208C47.8778 58.7857 46.651 63.3413 47.0212 67.9099C47.4293 72.1781 49.1992 76.202 52.0695 79.3872C54.9398 82.5724 58.7584 84.7501 62.9612 85.5988C64.1955 85.817 65.4478 85.917 66.701 85.8974Z" fill="#444444" fill-opacity="0.4"/>
</svg>
