<svg width="28" height="20" viewBox="0 0 28 20" fill="none" xmlns="http://www.w3.org/2000/svg">
<g clip-path="url(#clip0_39_2904)">
<path d="M27.7711 2.92412L20.5282 10.3007C20.5155 10.3128 20.5053 10.3275 20.4984 10.3437C20.4915 10.3598 20.4879 10.3773 20.4879 10.3949C20.4879 10.4125 20.4915 10.4299 20.4984 10.4461C20.5053 10.4623 20.5155 10.4769 20.5282 10.4891L25.5967 15.8873C25.7609 16.0516 25.8532 16.2744 25.8532 16.5068C25.8532 16.7391 25.7609 16.9619 25.5967 17.1262C25.4324 17.2904 25.2096 17.3827 24.9772 17.3827C24.7449 17.3827 24.5221 17.2904 24.3578 17.1262L19.3068 11.7477C19.2809 11.7219 19.2459 11.7074 19.2093 11.7074C19.1727 11.7074 19.1377 11.7219 19.1118 11.7477L17.8828 12.9998C17.3792 13.5143 16.7783 13.9234 16.1149 14.203C15.4515 14.4827 14.7391 14.6274 14.0192 14.6287C13.2834 14.6258 12.5556 14.4761 11.8785 14.1883C11.2013 13.9005 10.5884 13.4804 10.0757 12.9527L8.89155 11.7477C8.86568 11.7219 8.83062 11.7074 8.79406 11.7074C8.75751 11.7074 8.72245 11.7219 8.69657 11.7477L3.64778 17.1262C3.48346 17.2904 3.26064 17.3827 3.02833 17.3827C2.79601 17.3827 2.57319 17.2904 2.40887 17.1262C2.24465 16.9619 2.1524 16.7391 2.1524 16.5068C2.1524 16.2744 2.24465 16.0516 2.40887 15.8873L7.47627 10.4891C7.49901 10.463 7.51153 10.4295 7.51153 10.3949C7.51153 10.3603 7.49901 10.3268 7.47627 10.3007L0.228983 2.92412C0.21058 2.90461 0.186687 2.89113 0.160463 2.88548C0.134238 2.87983 0.106916 2.88227 0.0821084 2.89248C0.0573004 2.90269 0.0361738 2.92018 0.0215206 2.94265C0.00686736 2.96512 -0.000622603 2.99151 4.05173e-05 3.01833V17.7791C0.0017741 18.3497 0.229227 18.8965 0.632729 19.3C1.03623 19.7035 1.583 19.931 2.15363 19.9327H25.8464C26.4171 19.931 26.9639 19.7035 27.3674 19.3C27.7709 18.8965 27.9983 18.3497 28 17.7791V3.01833C27.9996 2.99199 27.9915 2.96635 27.9767 2.94458C27.9618 2.92281 27.941 2.90586 27.9166 2.89584C27.8922 2.88581 27.8655 2.88315 27.8396 2.88818C27.8137 2.8932 27.7899 2.9057 27.7711 2.92412Z" fill="#0425AC"/>
<path d="M14.0011 12.8729C14.4909 12.8741 14.976 12.777 15.4276 12.5874C15.8792 12.3977 16.2881 12.1193 16.6301 11.7687L27.191 1.01935C26.8139 0.714078 26.3432 0.547772 25.8579 0.548322H2.14758C1.66213 0.546605 1.19107 0.713045 0.814453 1.01935L11.3754 11.7687C11.717 12.1189 12.1254 12.3971 12.5764 12.5867C13.0274 12.7764 13.5119 12.8737 14.0011 12.8729Z" fill="#0425AC"/>
</g>
<defs>
<clipPath id="clip0_39_2904">
<rect width="28" height="19.3845" fill="white" transform="translate(0 0.54834)"/>
</clipPath>
</defs>
</svg>
