<svg width="28" height="20" viewBox="0 0 28 20" fill="none" xmlns="http://www.w3.org/2000/svg">
<path d="M27.7711 2.3756L20.5282 9.75215C20.5155 9.76432 20.5053 9.77894 20.4984 9.79513C20.4915 9.81132 20.4879 9.82875 20.4879 9.84636C20.4879 9.86396 20.4915 9.88139 20.4984 9.89758C20.5053 9.91377 20.5155 9.92839 20.5282 9.94056L25.5967 15.3388C25.7609 15.5031 25.8532 15.7259 25.8532 15.9582C25.8532 16.1906 25.7609 16.4134 25.5967 16.5777C25.4324 16.7419 25.2096 16.8342 24.9772 16.8342C24.7449 16.8342 24.5221 16.7419 24.3578 16.5777L19.3068 11.1992C19.2809 11.1734 19.2459 11.1589 19.2093 11.1589C19.1727 11.1589 19.1377 11.1734 19.1118 11.1992L17.8828 12.4513C17.3792 12.9658 16.7783 13.3748 16.1149 13.6545C15.4515 13.9342 14.7391 14.0789 14.0192 14.0802C13.2834 14.0773 12.5556 13.9275 11.8785 13.6397C11.2013 13.3519 10.5884 12.9319 10.0757 12.4042L8.89155 11.1992C8.86568 11.1734 8.83062 11.1589 8.79406 11.1589C8.75751 11.1589 8.72245 11.1734 8.69657 11.1992L3.64778 16.5777C3.48346 16.7419 3.26064 16.8342 3.02833 16.8342C2.79601 16.8342 2.57319 16.7419 2.40887 16.5777C2.24465 16.4134 2.1524 16.1906 2.1524 15.9582C2.1524 15.7259 2.24465 15.5031 2.40887 15.3388L7.47627 9.94056C7.49901 9.91444 7.51153 9.88098 7.51153 9.84636C7.51153 9.81173 7.49901 9.77827 7.47627 9.75215L0.228983 2.3756C0.21058 2.35608 0.186687 2.34261 0.160463 2.33696C0.134238 2.33131 0.106916 2.33375 0.0821084 2.34396C0.0573004 2.35416 0.0361738 2.37166 0.0215206 2.39413C0.00686736 2.4166 -0.000622603 2.44299 4.05173e-05 2.46981V17.2306C0.0017741 17.8012 0.229227 18.348 0.632729 18.7515C1.03623 19.155 1.583 19.3824 2.15363 19.3842H25.8464C26.4171 19.3824 26.9639 19.155 27.3674 18.7515C27.7709 18.348 27.9983 17.8012 28 17.2306V2.46981C27.9996 2.44347 27.9915 2.41782 27.9767 2.39605C27.9618 2.37428 27.941 2.35734 27.9166 2.34731C27.8922 2.33729 27.8655 2.33463 27.8396 2.33965C27.8137 2.34468 27.7899 2.35718 27.7711 2.3756Z" fill="white"/>
<path d="M14.0006 12.3246C14.4904 12.3258 14.9755 12.2287 15.4271 12.0391C15.8787 11.8494 16.2876 11.571 16.6296 11.2204L27.1906 0.471044C26.8134 0.165769 26.3427 -0.000537129 25.8574 1.31645e-05H2.14709C1.66164 -0.00170462 1.19058 0.164736 0.813965 0.471044L11.3749 11.2204C11.7165 11.5706 12.1249 11.8488 12.5759 12.0384C13.0269 12.2281 13.5114 12.3254 14.0006 12.3246Z" fill="white"/>
</svg>
