<svg width="26" height="34" viewBox="0 0 26 34" fill="none" xmlns="http://www.w3.org/2000/svg">
<path d="M25.5791 13.2285C25.5791 9.91241 24.2618 6.73211 21.917 4.38727C19.5721 2.04242 16.3918 0.725098 13.0757 0.725098C9.75958 0.725098 6.57928 2.04242 4.23443 4.38727C1.88959 6.73211 0.572266 9.91241 0.572266 13.2285C0.572266 20.1611 13.075 33.0869 13.075 33.0869C13.075 33.0869 25.5791 20.154 25.5791 13.2285ZM7.25302 12.9838C7.25302 11.8323 7.59447 10.7067 8.2342 9.74925C8.87392 8.79183 9.78319 8.04562 10.847 7.60497C11.9108 7.16432 13.0814 7.04902 14.2108 7.27367C15.3401 7.49831 16.3775 8.05279 17.1917 8.86701C18.0059 9.68123 18.5604 10.7186 18.7851 11.848C19.0097 12.9773 18.8944 14.1479 18.4538 15.2117C18.0131 16.2756 17.2669 17.1848 16.3095 17.8245C15.3521 18.4643 14.2265 18.8057 13.075 18.8057C11.534 18.7957 10.059 18.1791 8.9693 17.0894C7.87963 15.9998 7.26303 14.5247 7.25302 12.9838Z" fill="#0425AC"/>
</svg>
