<svg width="26" height="34" viewBox="0 0 26 34" fill="none" xmlns="http://www.w3.org/2000/svg">
<path d="M25.5789 13.2285C25.5789 9.91241 24.2616 6.73211 21.9167 4.38727C19.5719 2.04242 16.3916 0.725098 13.0754 0.725098C9.75933 0.725098 6.57904 2.04242 4.23419 4.38727C1.88934 6.73211 0.572021 9.91241 0.572021 13.2285C0.572021 20.1611 13.0747 33.0869 13.0747 33.0869C13.0747 33.0869 25.5789 20.154 25.5789 13.2285ZM7.25278 12.9838C7.25278 11.8323 7.59423 10.7067 8.23395 9.74925C8.87368 8.79183 9.78295 8.04562 10.8468 7.60497C11.9106 7.16432 13.0812 7.04902 14.2105 7.27367C15.3399 7.49831 16.3773 8.05279 17.1915 8.86701C18.0057 9.68123 18.5602 10.7186 18.7848 11.848C19.0095 12.9773 18.8942 14.1479 18.4535 15.2117C18.0129 16.2756 17.2667 17.1848 16.3092 17.8245C15.3518 18.4643 14.2262 18.8057 13.0747 18.8057C11.5338 18.7957 10.0587 18.1791 8.96905 17.0894C7.87939 15.9998 7.26279 14.5247 7.25278 12.9838Z" fill="white"/>
</svg>
