<svg width="29" height="30" viewBox="0 0 29 30" fill="none" xmlns="http://www.w3.org/2000/svg">
<path d="M28.3686 23.5707L28.2271 23.1463C28.0115 22.6058 27.6807 22.1187 27.2578 21.719C26.8348 21.3193 26.3299 21.0165 25.7781 20.8316L22.0345 19.8087C21.4719 19.687 20.8885 19.6994 20.3315 19.8449C19.7746 19.9904 19.2597 20.265 18.8285 20.6463L17.4731 22.0017C15.0505 21.3454 12.8421 20.066 11.0675 18.291C9.293 16.5159 8.01427 14.3071 7.35861 11.8844L8.714 10.529C9.0952 10.0983 9.36966 9.58385 9.51517 9.02738C9.66068 8.47092 9.67315 7.88801 9.55157 7.32583L8.53149 3.5794C8.34642 3.02783 8.04334 2.52324 7.64335 2.10076C7.24336 1.67829 6.75607 1.3481 6.21544 1.13318L5.79099 0.9917C5.24289 0.840626 4.66563 0.829596 4.11216 0.959622C3.55868 1.08965 3.04672 1.35656 2.62322 1.73589L0.595792 3.76474C0.305713 4.18441 0.103581 4.65846 0.00157008 5.15833C-0.0348935 8.34079 0.564102 11.4985 1.76347 14.4466C2.96283 17.3946 4.73844 20.0736 6.98629 22.3268C9.23414 24.5799 11.909 26.3618 14.8542 27.568C17.7995 28.7743 20.9558 29.3807 24.1383 29.3517C24.6596 29.26 25.1556 29.0594 25.5942 28.7631L27.6216 26.7357C28.0009 26.3127 28.2681 25.8014 28.3986 25.2484C28.5291 24.6955 28.5188 24.1187 28.3686 23.5707Z" fill="white"/>
</svg>
