<svg width="29" height="29" viewBox="0 0 29 29" fill="none" xmlns="http://www.w3.org/2000/svg">
<path d="M28.3686 23.1191L28.2271 22.6946C28.0115 22.1541 27.6807 21.6671 27.2578 21.2673C26.8348 20.8676 26.3299 20.5648 25.7781 20.38L22.0345 19.3571C21.4719 19.2354 20.8885 19.2478 20.3315 19.3933C19.7746 19.5388 19.2597 19.8133 18.8285 20.1946L17.4731 21.55C15.0505 20.8937 12.8421 19.6144 11.0675 17.8393C9.293 16.0643 8.01427 13.8555 7.35861 11.4327L8.714 10.0773C9.0952 9.64659 9.36966 9.13219 9.51517 8.57572C9.66068 8.01926 9.67315 7.43635 9.55157 6.87417L8.53149 3.12774C8.34642 2.57617 8.04334 2.07158 7.64335 1.6491C7.24336 1.22663 6.75607 0.896438 6.21544 0.681521L5.79099 0.54004C5.24289 0.388966 4.66563 0.377936 4.11216 0.507961C3.55868 0.637987 3.04672 0.904905 2.62322 1.28423L0.595792 3.31308C0.305713 3.73275 0.103581 4.2068 0.00157008 4.70667C-0.0348935 7.88913 0.564102 11.0469 1.76347 13.9949C2.96283 16.9429 4.73844 19.622 6.98629 21.8751C9.23414 24.1282 11.909 25.9101 14.8542 27.1164C17.7995 28.3226 20.9558 28.929 24.1383 28.9C24.6596 28.8083 25.1556 28.6078 25.5942 28.3114L27.6216 26.284C28.0009 25.8611 28.2681 25.3497 28.3986 24.7968C28.5291 24.2438 28.5188 23.667 28.3686 23.1191Z" fill="#0425AC"/>
</svg>
