<svg width="28" height="28" viewBox="0 0 28 28" fill="none" xmlns="http://www.w3.org/2000/svg">
<path d="M0 3.84271C0.146741 3.44834 0.34851 3.09066 0.706191 2.83386C0.972159 2.64126 1.26564 2.51287 1.59581 2.50369C2.05437 2.48535 2.52211 2.50369 2.98067 2.49452C3.14576 2.49452 3.20079 2.56789 3.20079 2.72381C3.20996 3.35663 3.1641 3.98945 3.23747 4.62227C3.32001 5.40183 4.01703 6.08968 4.79659 6.17222C5.17262 6.21807 5.54864 6.21807 5.93384 6.17222C6.7134 6.0805 7.35539 5.4752 7.48379 4.69564C7.59384 4.05365 7.53882 3.40248 7.54799 2.75132C7.54799 2.54038 7.62136 2.48535 7.81395 2.48535C10.1893 2.49452 12.5739 2.49452 14.9492 2.48535C15.1785 2.48535 15.2427 2.55872 15.2427 2.77883C15.2427 3.39331 15.206 4.01696 15.2794 4.63144C15.3619 5.37431 16.0681 6.0805 16.811 6.16305C17.1962 6.2089 17.5814 6.2089 17.9666 6.16305C18.7462 6.07133 19.3881 5.46603 19.5165 4.68647C19.6266 4.05365 19.5624 3.42082 19.5807 2.788C19.5899 2.48535 19.5807 2.48535 19.8834 2.48535C20.2594 2.48535 20.6263 2.48535 21.0023 2.48535C22.0111 2.49452 22.7724 3.25574 22.7815 4.25541C22.7907 7.02515 22.7815 9.78571 22.7815 12.5554C22.7815 12.8398 22.754 12.8581 22.488 12.8122C21.9836 12.7389 21.4792 12.7114 20.9748 12.7205C20.828 12.7205 20.7638 12.6838 20.7638 12.5371C20.7638 12.4637 20.7638 12.3904 20.7638 12.317C20.7638 11.1889 20.7547 10.0609 20.7638 8.94195C20.7638 8.73101 20.718 8.6393 20.4795 8.6393C14.399 8.64847 8.32755 8.64847 2.24697 8.6393C2.0452 8.6393 1.981 8.68516 1.981 8.8961C1.99017 12.2528 1.981 15.6095 1.99017 18.957C1.99017 19.544 2.21029 20.0209 2.76056 20.2869C3.01736 20.4061 3.2925 20.4153 3.56764 20.4153C6.40157 20.4153 9.23551 20.4153 12.0694 20.4153C12.1428 20.4153 12.2162 20.4153 12.2896 20.4153C12.4363 20.4153 12.4913 20.4886 12.4822 20.6262C12.4363 21.2132 12.4913 21.8001 12.583 22.3871C12.6105 22.5705 12.5647 22.6439 12.3629 22.6439C8.8228 22.6439 5.28267 22.6439 1.74255 22.6347C0.962987 22.6347 0.376024 22.2037 0.0825418 21.47C0.0550278 21.4058 0.0366852 21.3416 0.00917131 21.2865C0 15.4811 0 9.66649 0 3.84271Z" fill="white"/>
<path d="M20.4428 28.0001C19.8283 27.8992 19.2138 27.7616 18.636 27.514C17.5813 27.0738 16.6917 26.4226 15.9672 25.5422C15.3068 24.7443 14.8574 23.8455 14.6098 22.855C14.3805 21.947 14.3622 21.0207 14.5089 20.1036C14.7382 18.6178 15.4169 17.3522 16.4991 16.3158C17.5905 15.2703 18.8836 14.6375 20.4061 14.4724C21.149 14.3899 21.8827 14.399 22.6072 14.5549C23.7719 14.7934 24.8083 15.3162 25.7163 16.1049C26.9269 17.1688 27.6514 18.5078 27.9541 20.0761C27.9816 20.2045 27.9541 20.3329 28.0183 20.4521C28.0183 20.9749 28.0183 21.4976 28.0183 22.0204C28.0091 22.0571 27.9908 22.0938 27.9816 22.1304C27.8073 23.4053 27.3212 24.5608 26.505 25.5513C25.597 26.6519 24.4506 27.4131 23.0658 27.7983C22.7172 27.89 22.3687 27.9542 22.0202 28.0276C21.4883 28.0001 20.9655 28.0001 20.4428 28.0001ZM21.1856 16.7744C18.7094 16.8019 16.7467 18.8013 16.7742 21.2775C16.8018 23.7263 18.8194 25.6889 21.2682 25.6614C23.7261 25.6339 25.6979 23.6162 25.6704 21.1858C25.6429 18.7187 23.6435 16.7561 21.1856 16.7744Z" fill="white"/>
<path d="M17.985 0C18.3518 0.183426 18.5077 0.458565 18.4986 0.880446C18.4802 2.01769 18.4894 3.15493 18.4894 4.30134C18.4894 4.89748 18.2234 5.16345 17.6273 5.16345C17.4163 5.16345 17.2146 5.16345 17.0036 5.16345C16.6184 5.15427 16.2791 4.84245 16.2791 4.45725C16.2699 3.20079 16.2699 1.94432 16.2791 0.678677C16.2791 0.357681 16.5267 0.174255 16.7743 0.00917131C17.1779 0 17.5814 0 17.985 0Z" fill="white"/>
<path d="M5.95214 0C6.32816 0.174255 6.4749 0.458565 6.46573 0.880446C6.44739 2.01769 6.46573 3.1641 6.45656 4.30134C6.45656 4.87914 6.17225 5.16345 5.58529 5.16345C5.36517 5.16345 5.15423 5.17262 4.93412 5.16345C4.57644 5.1451 4.24627 4.83328 4.2371 4.46643C4.22793 3.21913 4.22793 1.96266 4.2371 0.715362C4.2371 0.366852 4.46639 0.146741 4.77821 0.00917131C5.17258 0 5.55777 0 5.95214 0Z" fill="white"/>
<path d="M11.3816 13.6926C10.4186 13.6926 9.61157 12.8855 9.61157 11.9317C9.61157 10.9687 10.4095 10.1616 11.3725 10.1616C12.3446 10.1616 13.1517 10.9687 13.1425 11.95C13.1425 12.8855 12.3354 13.6926 11.3816 13.6926Z" fill="white"/>
<path d="M18.3426 11.9411C18.3426 12.8949 17.5447 13.7112 16.5909 13.6929C15.5728 13.6745 14.8208 12.9591 14.8208 11.9411C14.8208 10.9048 15.5637 10.1802 16.6184 10.1711C17.563 10.1436 18.3518 10.9781 18.3426 11.9411Z" fill="white"/>
<path d="M4.41138 11.9225C4.41138 10.932 5.20928 10.1433 6.19061 10.1524C7.13526 10.1616 7.93316 10.9687 7.92399 11.9225C7.92399 12.8946 7.12608 13.6925 6.1631 13.6925C5.20011 13.6925 4.41138 12.8946 4.41138 11.9225Z" fill="white"/>
<path d="M11.3634 18.9389C10.3912 18.9297 9.60248 18.141 9.61165 17.1688C9.62082 16.1967 10.4096 15.4263 11.3909 15.4263C12.363 15.4263 13.1518 16.2242 13.1426 17.1688C13.1334 18.1593 12.3539 18.9389 11.3634 18.9389Z" fill="white"/>
<path d="M4.41138 17.1595C4.41138 16.1782 5.19094 15.417 6.18144 15.417C7.1536 15.417 7.92399 16.1874 7.92399 17.1595C7.93316 18.15 7.14443 18.9296 6.15393 18.9296C5.1726 18.9296 4.41138 18.15 4.41138 17.1595Z" fill="white"/>
<path d="M20.1217 22.1121C19.5439 22.1121 18.957 22.1121 18.3792 22.1121C18.2141 22.1121 18.1407 22.0662 18.1407 21.8828C18.1499 21.5251 18.1499 21.1674 18.1407 20.8097C18.1316 20.6171 18.1958 20.5438 18.3975 20.553C19.0304 20.5621 19.6632 20.5529 20.296 20.5621C20.5069 20.5621 20.562 20.4979 20.562 20.287C20.5528 19.6542 20.562 19.0213 20.5528 18.3885C20.5528 18.2051 20.6078 18.1317 20.7912 18.1409C21.1673 18.1501 21.5341 18.1501 21.9101 18.1409C22.0477 18.1409 22.1119 18.1959 22.1119 18.3335C22.1119 19.5258 22.1119 20.718 22.1119 21.9103C22.1119 22.0754 22.0294 22.1029 21.8918 22.1029C21.3048 22.1121 20.7179 22.1121 20.1217 22.1121Z" fill="white"/>
</svg>
